<svg xmlns="http://www.w3.org/2000/svg" xmlns:xlink="http://www.w3.org/1999/xlink" width="180" zoomAndPan="magnify" viewBox="0 0 135.12 60" height="70" preserveAspectRatio="xMidYMid meet" version="1.2"><defs><clipPath id="2f17e09c71"><path d="M 106 21 L 115 21 L 115 25.542969 L 106 25.542969 Z M 106 21 "/></clipPath><clipPath id="80eac6ef97"><path d="M 98.21875 7.3125 L 102 7.3125 L 102 15 L 98.21875 15 Z M 98.21875 7.3125 "/></clipPath></defs><g id="4cb423f92a"><path style=" stroke:none;fill-rule:nonzero;fill:#5bad89;fill-opacity:1;" d="M 110.917969 18.835938 C 108.25 21.503906 102.636719 20.214844 102.636719 20.214844 C 102.636719 20.214844 101.347656 14.601562 104.015625 11.933594 C 106.683594 9.265625 112.300781 10.554688 112.300781 10.554688 C 112.300781 10.554688 113.585938 16.167969 110.917969 18.835938 Z M 110.917969 18.835938 "/><path style=" stroke:none;fill-rule:nonzero;fill:#63bc94;fill-opacity:1;" d="M 104.015625 11.933594 C 101.347656 14.601562 102.636719 20.214844 102.636719 20.214844 L 112.300781 10.550781 C 112.300781 10.550781 106.683594 9.265625 104.015625 11.933594 Z M 104.015625 11.933594 "/><g clip-rule="nonzero" clip-path="url(#2f17e09c71)"><path style=" stroke:none;fill-rule:nonzero;fill:#dbdbdb;fill-opacity:1;" d="M 108.371094 46.019531 L 106.890625 44.746094 C 110.242188 40.855469 112.085938 35.882812 112.085938 30.742188 C 112.085938 27.824219 111.511719 24.996094 110.378906 22.339844 L 112.175781 21.574219 C 113.414062 24.476562 114.039062 27.558594 114.039062 30.742188 C 114.039062 36.351562 112.027344 41.777344 108.371094 46.019531 Z M 108.371094 46.019531 "/></g><g clip-rule="nonzero" clip-path="url(#80eac6ef97)"><path style=" stroke:none;fill-rule:nonzero;fill:#dbdbdb;fill-opacity:1;" d="M 76.144531 14.867188 L 74.828125 13.425781 C 79.152344 9.484375 84.757812 7.3125 90.609375 7.3125 C 94.527344 7.3125 98.402344 8.296875 101.816406 10.160156 L 100.882812 11.875 C 97.75 10.167969 94.199219 9.265625 90.609375 9.265625 C 85.246094 9.265625 80.109375 11.253906 76.144531 14.867188 Z M 76.144531 14.867188 "/></g><g style="fill:#ffffff;fill-opacity:1;"><g transform="translate(19.355196, 35.981258)"><path style="stroke:none" d="M 11.078125 -13.390625 C 11.378906 -13.390625 11.660156 -13.296875 11.921875 -13.109375 C 12.191406 -12.929688 12.328125 -12.660156 12.328125 -12.296875 L 12.328125 -1.140625 C 12.328125 -0.753906 12.191406 -0.46875 11.921875 -0.28125 C 11.660156 -0.09375 11.378906 0 11.078125 0 C 10.773438 0 10.5 -0.09375 10.25 -0.28125 C 10.007812 -0.46875 9.890625 -0.753906 9.890625 -1.140625 L 9.890625 -5.46875 L 3.59375 -5.46875 L 3.59375 -1.140625 C 3.59375 -0.742188 3.46875 -0.453125 3.21875 -0.265625 C 2.96875 -0.0859375 2.703125 0 2.421875 0 C 2.109375 0 1.820312 -0.0976562 1.5625 -0.296875 C 1.300781 -0.492188 1.171875 -0.773438 1.171875 -1.140625 L 1.171875 -12.296875 C 1.171875 -12.660156 1.289062 -12.929688 1.53125 -13.109375 C 1.769531 -13.296875 2.046875 -13.390625 2.359375 -13.390625 C 2.660156 -13.390625 2.941406 -13.296875 3.203125 -13.109375 C 3.460938 -12.929688 3.59375 -12.660156 3.59375 -12.296875 L 3.59375 -7.515625 L 9.890625 -7.515625 L 9.890625 -12.296875 C 9.890625 -12.660156 10.007812 -12.929688 10.25 -13.109375 C 10.5 -13.296875 10.773438 -13.390625 11.078125 -13.390625 Z M 11.078125 -13.390625 "/></g></g><g style="fill:#ffffff;fill-opacity:1;"><g transform="translate(32.916069, 35.981258)"><path style="stroke:none" d="M 9.78125 -10.703125 C 10.144531 -10.703125 10.4375 -10.597656 10.65625 -10.390625 C 10.875 -10.191406 10.984375 -9.929688 10.984375 -9.609375 L 10.984375 -1.09375 C 10.984375 -0.769531 10.875 -0.503906 10.65625 -0.296875 C 10.4375 -0.0976562 10.144531 0 9.78125 0 C 9.425781 0 9.148438 -0.078125 8.953125 -0.234375 C 8.765625 -0.398438 8.648438 -0.617188 8.609375 -0.890625 C 8.128906 -0.503906 7.59375 -0.222656 7 -0.046875 C 6.414062 0.117188 5.859375 0.203125 5.328125 0.203125 C 4.316406 0.203125 3.441406 -0.0234375 2.703125 -0.484375 C 1.960938 -0.941406 1.394531 -1.59375 1 -2.4375 C 0.613281 -3.28125 0.421875 -4.265625 0.421875 -5.390625 C 0.421875 -6.484375 0.632812 -7.441406 1.0625 -8.265625 C 1.5 -9.085938 2.109375 -9.734375 2.890625 -10.203125 C 3.671875 -10.679688 4.570312 -10.921875 5.59375 -10.921875 C 6.039062 -10.921875 6.535156 -10.832031 7.078125 -10.65625 C 7.628906 -10.488281 8.140625 -10.222656 8.609375 -9.859375 C 8.660156 -10.109375 8.785156 -10.3125 8.984375 -10.46875 C 9.179688 -10.625 9.445312 -10.703125 9.78125 -10.703125 Z M 5.578125 -1.90625 C 6.191406 -1.90625 6.785156 -2.039062 7.359375 -2.3125 C 7.929688 -2.59375 8.335938 -3 8.578125 -3.53125 L 8.578125 -7.171875 C 8.316406 -7.691406 7.914062 -8.09375 7.375 -8.375 C 6.84375 -8.65625 6.304688 -8.796875 5.765625 -8.796875 C 4.878906 -8.796875 4.164062 -8.472656 3.625 -7.828125 C 3.082031 -7.179688 2.8125 -6.359375 2.8125 -5.359375 C 2.8125 -4.328125 3.0625 -3.492188 3.5625 -2.859375 C 4.070312 -2.222656 4.742188 -1.90625 5.578125 -1.90625 Z M 5.578125 -1.90625 "/></g></g><g style="fill:#ffffff;fill-opacity:1;"><g transform="translate(45.068268, 35.981258)"><path style="stroke:none" d="M 5.671875 -10.703125 C 6.054688 -10.703125 6.359375 -10.617188 6.578125 -10.453125 C 6.804688 -10.296875 6.921875 -10.035156 6.921875 -9.671875 C 6.921875 -9.335938 6.804688 -9.070312 6.578125 -8.875 C 6.359375 -8.675781 6.054688 -8.578125 5.671875 -8.578125 C 4.796875 -8.578125 4.175781 -8.257812 3.8125 -7.625 C 3.457031 -7 3.28125 -6.144531 3.28125 -5.0625 L 3.28125 -1.078125 C 3.28125 -0.765625 3.164062 -0.503906 2.9375 -0.296875 C 2.71875 -0.0976562 2.445312 0 2.125 0 C 1.757812 0 1.460938 -0.0976562 1.234375 -0.296875 C 1.015625 -0.503906 0.90625 -0.765625 0.90625 -1.078125 L 0.90625 -9.625 C 0.90625 -9.96875 1.035156 -10.234375 1.296875 -10.421875 C 1.554688 -10.609375 1.832031 -10.703125 2.125 -10.703125 C 2.414062 -10.703125 2.679688 -10.609375 2.921875 -10.421875 C 3.160156 -10.242188 3.28125 -9.976562 3.28125 -9.625 L 3.28125 -9.5 C 3.59375 -9.90625 3.953125 -10.207031 4.359375 -10.40625 C 4.765625 -10.601562 5.203125 -10.703125 5.671875 -10.703125 Z M 5.671875 -10.703125 "/></g></g><g style="fill:#ffffff;fill-opacity:1;"><g transform="translate(51.354505, 35.981258)"><path style="stroke:none" d="M 15.390625 -10.921875 C 16.367188 -10.921875 17.203125 -10.703125 17.890625 -10.265625 C 18.578125 -9.835938 19.101562 -9.242188 19.46875 -8.484375 C 19.832031 -7.722656 20.015625 -6.835938 20.015625 -5.828125 L 20.015625 -1.09375 C 20.015625 -0.769531 19.910156 -0.503906 19.703125 -0.296875 C 19.503906 -0.0976562 19.210938 0 18.828125 0 C 18.472656 0 18.179688 -0.0976562 17.953125 -0.296875 C 17.734375 -0.503906 17.625 -0.769531 17.625 -1.09375 L 17.625 -5.875 C 17.625 -6.738281 17.414062 -7.441406 17 -7.984375 C 16.59375 -8.535156 15.945312 -8.8125 15.0625 -8.8125 C 14.613281 -8.8125 14.140625 -8.671875 13.640625 -8.390625 C 13.140625 -8.109375 12.71875 -7.703125 12.375 -7.171875 C 12.03125 -6.640625 11.859375 -5.988281 11.859375 -5.21875 L 11.859375 -1.09375 C 11.859375 -0.769531 11.753906 -0.503906 11.546875 -0.296875 C 11.347656 -0.0976562 11.0625 0 10.6875 0 C 10.332031 0 10.039062 -0.0976562 9.8125 -0.296875 C 9.582031 -0.503906 9.46875 -0.769531 9.46875 -1.09375 L 9.46875 -5.875 C 9.46875 -6.738281 9.257812 -7.441406 8.84375 -7.984375 C 8.425781 -8.535156 7.773438 -8.8125 6.890625 -8.8125 C 6.628906 -8.8125 6.320312 -8.738281 5.96875 -8.59375 C 5.625 -8.445312 5.28125 -8.222656 4.9375 -7.921875 C 4.601562 -7.628906 4.328125 -7.257812 4.109375 -6.8125 C 3.890625 -6.363281 3.78125 -5.832031 3.78125 -5.21875 L 3.78125 -1.046875 C 3.78125 -0.703125 3.65625 -0.441406 3.40625 -0.265625 C 3.15625 -0.0859375 2.882812 0 2.59375 0 C 2.28125 0 2.003906 -0.0859375 1.765625 -0.265625 C 1.523438 -0.441406 1.40625 -0.703125 1.40625 -1.046875 L 1.40625 -9.625 C 1.40625 -9.925781 1.519531 -10.179688 1.75 -10.390625 C 1.988281 -10.597656 2.269531 -10.703125 2.59375 -10.703125 C 2.957031 -10.703125 3.242188 -10.597656 3.453125 -10.390625 C 3.671875 -10.179688 3.78125 -9.925781 3.78125 -9.625 L 3.78125 -9.5625 C 4.351562 -10.113281 4.941406 -10.476562 5.546875 -10.65625 C 6.148438 -10.832031 6.71875 -10.921875 7.25 -10.921875 C 8.132812 -10.921875 8.898438 -10.738281 9.546875 -10.375 C 10.191406 -10.019531 10.703125 -9.535156 11.078125 -8.921875 C 11.515625 -9.453125 11.984375 -9.859375 12.484375 -10.140625 C 12.992188 -10.429688 13.5 -10.632812 14 -10.75 C 14.507812 -10.863281 14.972656 -10.921875 15.390625 -10.921875 Z M 15.390625 -10.921875 "/></g></g><g style="fill:#ffffff;fill-opacity:1;"><g transform="translate(73.009983, 35.981258)"><path style="stroke:none" d="M 6.015625 -10.921875 C 7.140625 -10.921875 8.117188 -10.679688 8.953125 -10.203125 C 9.796875 -9.734375 10.445312 -9.078125 10.90625 -8.234375 C 11.375 -7.398438 11.609375 -6.421875 11.609375 -5.296875 C 11.597656 -4.203125 11.351562 -3.238281 10.875 -2.40625 C 10.40625 -1.582031 9.753906 -0.941406 8.921875 -0.484375 C 8.085938 -0.0234375 7.117188 0.203125 6.015625 0.203125 C 4.921875 0.203125 3.953125 -0.0234375 3.109375 -0.484375 C 2.265625 -0.941406 1.609375 -1.582031 1.140625 -2.40625 C 0.671875 -3.238281 0.429688 -4.203125 0.421875 -5.296875 C 0.421875 -6.421875 0.65625 -7.398438 1.125 -8.234375 C 1.59375 -9.078125 2.25 -9.734375 3.09375 -10.203125 C 3.9375 -10.679688 4.910156 -10.921875 6.015625 -10.921875 Z M 6.015625 -1.890625 C 6.960938 -1.890625 7.722656 -2.203125 8.296875 -2.828125 C 8.867188 -3.460938 9.15625 -4.285156 9.15625 -5.296875 C 9.15625 -6.335938 8.867188 -7.179688 8.296875 -7.828125 C 7.722656 -8.484375 6.960938 -8.8125 6.015625 -8.8125 C 5.078125 -8.8125 4.316406 -8.484375 3.734375 -7.828125 C 3.160156 -7.179688 2.875 -6.335938 2.875 -5.296875 C 2.875 -4.285156 3.160156 -3.460938 3.734375 -2.828125 C 4.316406 -2.203125 5.078125 -1.890625 6.015625 -1.890625 Z M 6.015625 -1.890625 "/></g></g><g style="fill:#ffffff;fill-opacity:1;"><g transform="translate(84.678607, 35.981258)"><path style="stroke:none" d="M 7.09375 -10.921875 C 8.070312 -10.921875 8.90625 -10.703125 9.59375 -10.265625 C 10.28125 -9.835938 10.804688 -9.242188 11.171875 -8.484375 C 11.535156 -7.734375 11.71875 -6.851562 11.71875 -5.84375 L 11.71875 -1.09375 C 11.71875 -0.769531 11.609375 -0.503906 11.390625 -0.296875 C 11.179688 -0.0976562 10.890625 0 10.515625 0 C 10.160156 0 9.867188 -0.0976562 9.640625 -0.296875 C 9.421875 -0.503906 9.3125 -0.769531 9.3125 -1.09375 L 9.3125 -5.890625 C 9.3125 -6.753906 9.101562 -7.457031 8.6875 -8 C 8.28125 -8.539062 7.628906 -8.8125 6.734375 -8.8125 C 6.460938 -8.8125 6.140625 -8.738281 5.765625 -8.59375 C 5.398438 -8.445312 5.035156 -8.222656 4.671875 -7.921875 C 4.316406 -7.628906 4.023438 -7.257812 3.796875 -6.8125 C 3.566406 -6.363281 3.453125 -5.832031 3.453125 -5.21875 L 3.453125 -1.078125 C 3.453125 -0.359375 3.066406 0 2.296875 0 C 1.929688 0 1.628906 -0.09375 1.390625 -0.28125 C 1.160156 -0.46875 1.046875 -0.734375 1.046875 -1.078125 L 1.046875 -9.625 C 1.046875 -9.976562 1.164062 -10.242188 1.40625 -10.421875 C 1.65625 -10.609375 1.9375 -10.703125 2.25 -10.703125 C 2.539062 -10.703125 2.8125 -10.609375 3.0625 -10.421875 C 3.320312 -10.242188 3.453125 -9.992188 3.453125 -9.671875 L 3.453125 -9.53125 C 4.054688 -10.09375 4.675781 -10.460938 5.3125 -10.640625 C 5.957031 -10.828125 6.550781 -10.921875 7.09375 -10.921875 Z M 7.09375 -10.921875 "/></g></g><g style="fill:#ffffff;fill-opacity:1;"><g transform="translate(97.440529, 35.981258)"><path style="stroke:none" d="M 3.15625 -12.28125 C 3.15625 -11.925781 3.023438 -11.660156 2.765625 -11.484375 C 2.503906 -11.316406 2.226562 -11.234375 1.9375 -11.234375 C 1.625 -11.234375 1.34375 -11.316406 1.09375 -11.484375 C 0.84375 -11.660156 0.71875 -11.925781 0.71875 -12.28125 L 0.71875 -12.5625 C 0.71875 -12.925781 0.84375 -13.191406 1.09375 -13.359375 C 1.34375 -13.523438 1.625 -13.609375 1.9375 -13.609375 C 2.226562 -13.609375 2.503906 -13.523438 2.765625 -13.359375 C 3.023438 -13.191406 3.15625 -12.925781 3.15625 -12.5625 Z M 0.734375 -9.671875 C 0.734375 -10.003906 0.863281 -10.257812 1.125 -10.4375 C 1.382812 -10.613281 1.65625 -10.703125 1.9375 -10.703125 C 2.226562 -10.703125 2.5 -10.613281 2.75 -10.4375 C 3.007812 -10.257812 3.140625 -10.015625 3.140625 -9.703125 L 3.140625 -1.03125 C 3.140625 -0.675781 3.007812 -0.414062 2.75 -0.25 C 2.5 -0.0820312 2.226562 0 1.9375 0 C 1.65625 0 1.382812 -0.0820312 1.125 -0.25 C 0.863281 -0.414062 0.734375 -0.675781 0.734375 -1.03125 Z M 0.734375 -9.671875 "/></g></g><g style="fill:#ffffff;fill-opacity:1;"><g transform="translate(48.509751, 43.186496)"><path style="stroke:none" d="M 3.125 -4.671875 L 3.125 -4.421875 L 1.796875 -4.421875 L 1.796875 0 L 1.5 0 L 1.5 -4.421875 L 0.171875 -4.421875 L 0.171875 -4.671875 Z M 3.125 -4.671875 "/></g></g><g style="fill:#ffffff;fill-opacity:1;"><g transform="translate(51.550708, 43.186496)"><path style="stroke:none" d="M 2.5 -4.671875 L 2.5 -1.046875 C 2.5 -0.722656 2.394531 -0.457031 2.1875 -0.25 C 1.988281 -0.0507812 1.722656 0.046875 1.390625 0.046875 C 1.023438 0.046875 0.738281 -0.0625 0.53125 -0.28125 C 0.320312 -0.5 0.21875 -0.800781 0.21875 -1.1875 L 0.53125 -1.1875 C 0.53125 -0.90625 0.597656 -0.671875 0.734375 -0.484375 C 0.867188 -0.304688 1.085938 -0.21875 1.390625 -0.21875 C 1.671875 -0.21875 1.875 -0.296875 2 -0.453125 C 2.125 -0.617188 2.1875 -0.816406 2.1875 -1.046875 L 2.1875 -4.671875 Z M 2.5 -4.671875 "/></g></g><g style="fill:#ffffff;fill-opacity:1;"><g transform="translate(54.378708, 43.186496)"><path style="stroke:none" d="M 1.890625 0.046875 C 1.585938 0.046875 1.320312 -0.00390625 1.09375 -0.109375 C 0.875 -0.210938 0.703125 -0.351562 0.578125 -0.53125 C 0.453125 -0.71875 0.378906 -0.925781 0.359375 -1.15625 L 0.671875 -1.15625 C 0.703125 -0.90625 0.8125 -0.6875 1 -0.5 C 1.195312 -0.3125 1.492188 -0.21875 1.890625 -0.21875 C 2.128906 -0.21875 2.332031 -0.257812 2.5 -0.34375 C 2.664062 -0.425781 2.796875 -0.539062 2.890625 -0.6875 C 2.984375 -0.832031 3.03125 -0.992188 3.03125 -1.171875 C 3.03125 -1.398438 2.972656 -1.578125 2.859375 -1.703125 C 2.753906 -1.835938 2.617188 -1.9375 2.453125 -2 C 2.296875 -2.070312 2.082031 -2.144531 1.8125 -2.21875 C 1.507812 -2.300781 1.265625 -2.378906 1.078125 -2.453125 C 0.898438 -2.535156 0.742188 -2.660156 0.609375 -2.828125 C 0.484375 -2.992188 0.421875 -3.222656 0.421875 -3.515625 C 0.421875 -3.734375 0.476562 -3.9375 0.59375 -4.125 C 0.71875 -4.3125 0.890625 -4.457031 1.109375 -4.5625 C 1.328125 -4.664062 1.578125 -4.71875 1.859375 -4.71875 C 2.265625 -4.71875 2.59375 -4.613281 2.84375 -4.40625 C 3.101562 -4.207031 3.257812 -3.957031 3.3125 -3.65625 L 2.984375 -3.65625 C 2.960938 -3.78125 2.90625 -3.90625 2.8125 -4.03125 C 2.71875 -4.15625 2.585938 -4.253906 2.421875 -4.328125 C 2.253906 -4.410156 2.054688 -4.453125 1.828125 -4.453125 C 1.515625 -4.453125 1.25 -4.367188 1.03125 -4.203125 C 0.820312 -4.035156 0.71875 -3.804688 0.71875 -3.515625 C 0.71875 -3.296875 0.773438 -3.117188 0.890625 -2.984375 C 1.003906 -2.847656 1.140625 -2.742188 1.296875 -2.671875 C 1.460938 -2.597656 1.679688 -2.53125 1.953125 -2.46875 C 2.265625 -2.382812 2.507812 -2.300781 2.6875 -2.21875 C 2.863281 -2.144531 3.015625 -2.023438 3.140625 -1.859375 C 3.265625 -1.691406 3.328125 -1.460938 3.328125 -1.171875 C 3.328125 -0.960938 3.269531 -0.765625 3.15625 -0.578125 C 3.050781 -0.398438 2.890625 -0.25 2.671875 -0.125 C 2.460938 -0.0078125 2.203125 0.046875 1.890625 0.046875 Z M 1.890625 0.046875 "/></g></g><g style="fill:#ffffff;fill-opacity:1;"><g transform="translate(57.812299, 43.186496)"><path style="stroke:none" d="M 0.84375 -0.25 L 2.578125 -0.25 L 2.578125 0 L 0.546875 0 L 0.546875 -4.671875 L 0.84375 -4.671875 Z M 0.84375 -0.25 "/></g></g><g style="fill:#ffffff;fill-opacity:1;"><g transform="translate(60.274289, 43.186496)"><path style="stroke:none" d=""/></g></g><g style="fill:#ffffff;fill-opacity:1;"><g transform="translate(61.897766, 43.186496)"><path style="stroke:none" d="M 1.859375 -4.671875 C 2.648438 -4.671875 3.257812 -4.460938 3.6875 -4.046875 C 4.113281 -3.640625 4.328125 -3.066406 4.328125 -2.328125 C 4.328125 -1.585938 4.113281 -1.015625 3.6875 -0.609375 C 3.257812 -0.203125 2.648438 0 1.859375 0 L 0.546875 0 L 0.546875 -4.671875 Z M 1.859375 -0.25 C 2.566406 -0.25 3.101562 -0.429688 3.46875 -0.796875 C 3.832031 -1.160156 4.015625 -1.671875 4.015625 -2.328125 C 4.015625 -2.984375 3.832031 -3.492188 3.46875 -3.859375 C 3.101562 -4.234375 2.566406 -4.421875 1.859375 -4.421875 L 0.84375 -4.421875 L 0.84375 -0.25 Z M 1.859375 -0.25 "/></g></g><g style="fill:#ffffff;fill-opacity:1;"><g transform="translate(66.329581, 43.186496)"><path style="stroke:none" d="M 0.703125 -4.421875 C 0.628906 -4.421875 0.566406 -4.441406 0.515625 -4.484375 C 0.472656 -4.535156 0.453125 -4.597656 0.453125 -4.671875 C 0.453125 -4.753906 0.472656 -4.816406 0.515625 -4.859375 C 0.566406 -4.910156 0.628906 -4.9375 0.703125 -4.9375 C 0.773438 -4.9375 0.832031 -4.910156 0.875 -4.859375 C 0.925781 -4.816406 0.953125 -4.753906 0.953125 -4.671875 C 0.953125 -4.597656 0.925781 -4.535156 0.875 -4.484375 C 0.832031 -4.441406 0.773438 -4.421875 0.703125 -4.421875 Z M 0.84375 -3.609375 L 0.84375 0 L 0.546875 0 L 0.546875 -3.609375 Z M 0.84375 -3.609375 "/></g></g><g style="fill:#ffffff;fill-opacity:1;"><g transform="translate(67.47391, 43.186496)"><path style="stroke:none" d="M 2.109375 -3.65625 C 2.484375 -3.65625 2.800781 -3.5625 3.0625 -3.375 C 3.332031 -3.195312 3.523438 -2.960938 3.640625 -2.671875 L 3.640625 -3.609375 L 3.9375 -3.609375 L 3.9375 0.109375 C 3.9375 0.441406 3.863281 0.734375 3.71875 0.984375 C 3.570312 1.234375 3.375 1.425781 3.125 1.5625 C 2.875 1.695312 2.597656 1.765625 2.296875 1.765625 C 1.835938 1.765625 1.457031 1.65625 1.15625 1.4375 C 0.863281 1.226562 0.671875 0.9375 0.578125 0.5625 L 0.875 0.5625 C 0.96875 0.851562 1.132812 1.082031 1.375 1.25 C 1.625 1.425781 1.929688 1.515625 2.296875 1.515625 C 2.546875 1.515625 2.769531 1.457031 2.96875 1.34375 C 3.175781 1.226562 3.335938 1.066406 3.453125 0.859375 C 3.578125 0.648438 3.640625 0.398438 3.640625 0.109375 L 3.640625 -0.9375 C 3.523438 -0.65625 3.332031 -0.421875 3.0625 -0.234375 C 2.800781 -0.046875 2.484375 0.046875 2.109375 0.046875 C 1.765625 0.046875 1.460938 -0.0234375 1.203125 -0.171875 C 0.941406 -0.328125 0.734375 -0.546875 0.578125 -0.828125 C 0.429688 -1.109375 0.359375 -1.4375 0.359375 -1.8125 C 0.359375 -2.1875 0.429688 -2.507812 0.578125 -2.78125 C 0.734375 -3.0625 0.941406 -3.273438 1.203125 -3.421875 C 1.460938 -3.578125 1.765625 -3.65625 2.109375 -3.65625 Z M 3.640625 -1.8125 C 3.640625 -2.125 3.570312 -2.398438 3.4375 -2.640625 C 3.300781 -2.890625 3.117188 -3.078125 2.890625 -3.203125 C 2.671875 -3.335938 2.421875 -3.40625 2.140625 -3.40625 C 1.847656 -3.40625 1.585938 -3.335938 1.359375 -3.203125 C 1.140625 -3.078125 0.96875 -2.894531 0.84375 -2.65625 C 0.726562 -2.414062 0.671875 -2.132812 0.671875 -1.8125 C 0.671875 -1.476562 0.726562 -1.191406 0.84375 -0.953125 C 0.96875 -0.710938 1.140625 -0.53125 1.359375 -0.40625 C 1.585938 -0.28125 1.847656 -0.21875 2.140625 -0.21875 C 2.421875 -0.21875 2.675781 -0.28125 2.90625 -0.40625 C 3.132812 -0.539062 3.3125 -0.726562 3.4375 -0.96875 C 3.570312 -1.207031 3.640625 -1.488281 3.640625 -1.8125 Z M 3.640625 -1.8125 "/></g></g><g style="fill:#ffffff;fill-opacity:1;"><g transform="translate(71.699427, 43.186496)"><path style="stroke:none" d="M 0.703125 -4.421875 C 0.628906 -4.421875 0.566406 -4.441406 0.515625 -4.484375 C 0.472656 -4.535156 0.453125 -4.597656 0.453125 -4.671875 C 0.453125 -4.753906 0.472656 -4.816406 0.515625 -4.859375 C 0.566406 -4.910156 0.628906 -4.9375 0.703125 -4.9375 C 0.773438 -4.9375 0.832031 -4.910156 0.875 -4.859375 C 0.925781 -4.816406 0.953125 -4.753906 0.953125 -4.671875 C 0.953125 -4.597656 0.925781 -4.535156 0.875 -4.484375 C 0.832031 -4.441406 0.773438 -4.421875 0.703125 -4.421875 Z M 0.84375 -3.609375 L 0.84375 0 L 0.546875 0 L 0.546875 -3.609375 Z M 0.84375 -3.609375 "/></g></g><g style="fill:#ffffff;fill-opacity:1;"><g transform="translate(72.843756, 43.186496)"><path style="stroke:none" d="M 0.984375 -3.359375 L 0.984375 -0.96875 C 0.984375 -0.695312 1.03125 -0.507812 1.125 -0.40625 C 1.226562 -0.3125 1.40625 -0.265625 1.65625 -0.265625 L 2.0625 -0.265625 L 2.0625 0 L 1.609375 0 C 1.296875 0 1.0625 -0.0703125 0.90625 -0.21875 C 0.757812 -0.375 0.6875 -0.625 0.6875 -0.96875 L 0.6875 -3.359375 L 0.140625 -3.359375 L 0.140625 -3.609375 L 0.6875 -3.609375 L 0.6875 -4.53125 L 0.984375 -4.53125 L 0.984375 -3.609375 L 2.0625 -3.609375 L 2.0625 -3.359375 Z M 0.984375 -3.359375 "/></g></g><g style="fill:#ffffff;fill-opacity:1;"><g transform="translate(74.8998, 43.186496)"><path style="stroke:none" d="M 0.359375 -1.8125 C 0.359375 -2.1875 0.429688 -2.507812 0.578125 -2.78125 C 0.734375 -3.0625 0.941406 -3.273438 1.203125 -3.421875 C 1.460938 -3.578125 1.765625 -3.65625 2.109375 -3.65625 C 2.484375 -3.65625 2.800781 -3.5625 3.0625 -3.375 C 3.332031 -3.195312 3.523438 -2.960938 3.640625 -2.671875 L 3.640625 -3.609375 L 3.9375 -3.609375 L 3.9375 0 L 3.640625 0 L 3.640625 -0.953125 C 3.523438 -0.660156 3.332031 -0.421875 3.0625 -0.234375 C 2.800781 -0.046875 2.484375 0.046875 2.109375 0.046875 C 1.765625 0.046875 1.460938 -0.0234375 1.203125 -0.171875 C 0.941406 -0.328125 0.734375 -0.546875 0.578125 -0.828125 C 0.429688 -1.109375 0.359375 -1.4375 0.359375 -1.8125 Z M 3.640625 -1.8125 C 3.640625 -2.125 3.570312 -2.398438 3.4375 -2.640625 C 3.300781 -2.890625 3.117188 -3.078125 2.890625 -3.203125 C 2.671875 -3.335938 2.421875 -3.40625 2.140625 -3.40625 C 1.847656 -3.40625 1.585938 -3.335938 1.359375 -3.203125 C 1.140625 -3.078125 0.96875 -2.894531 0.84375 -2.65625 C 0.726562 -2.414062 0.671875 -2.132812 0.671875 -1.8125 C 0.671875 -1.476562 0.726562 -1.191406 0.84375 -0.953125 C 0.96875 -0.710938 1.140625 -0.53125 1.359375 -0.40625 C 1.585938 -0.28125 1.847656 -0.21875 2.140625 -0.21875 C 2.421875 -0.21875 2.675781 -0.28125 2.90625 -0.40625 C 3.132812 -0.539062 3.3125 -0.726562 3.4375 -0.96875 C 3.570312 -1.207031 3.640625 -1.488281 3.640625 -1.8125 Z M 3.640625 -1.8125 "/></g></g><g style="fill:#ffffff;fill-opacity:1;"><g transform="translate(79.125317, 43.186496)"><path style="stroke:none" d="M 0.84375 -4.921875 L 0.84375 0 L 0.546875 0 L 0.546875 -4.921875 Z M 0.84375 -4.921875 "/></g></g><g style="fill:#ffffff;fill-opacity:1;"><g transform="translate(80.269646, 43.186496)"><path style="stroke:none" d="M 0.703125 -4.421875 C 0.628906 -4.421875 0.566406 -4.441406 0.515625 -4.484375 C 0.472656 -4.535156 0.453125 -4.597656 0.453125 -4.671875 C 0.453125 -4.753906 0.472656 -4.816406 0.515625 -4.859375 C 0.566406 -4.910156 0.628906 -4.9375 0.703125 -4.9375 C 0.773438 -4.9375 0.832031 -4.910156 0.875 -4.859375 C 0.925781 -4.816406 0.953125 -4.753906 0.953125 -4.671875 C 0.953125 -4.597656 0.925781 -4.535156 0.875 -4.484375 C 0.832031 -4.441406 0.773438 -4.421875 0.703125 -4.421875 Z M 0.84375 -3.609375 L 0.84375 0 L 0.546875 0 L 0.546875 -3.609375 Z M 0.84375 -3.609375 "/></g></g><g style="fill:#ffffff;fill-opacity:1;"><g transform="translate(81.413975, 43.186496)"><path style="stroke:none" d="M 0.5625 -0.25 L 2.59375 -0.25 L 2.59375 0 L 0.21875 0 L 0.21875 -0.25 L 2.203125 -3.359375 L 0.265625 -3.359375 L 0.265625 -3.609375 L 2.546875 -3.609375 L 2.546875 -3.359375 Z M 0.5625 -0.25 "/></g></g><g style="fill:#ffffff;fill-opacity:1;"><g transform="translate(83.982437, 43.186496)"><path style="stroke:none" d="M 0.359375 -1.8125 C 0.359375 -2.1875 0.429688 -2.507812 0.578125 -2.78125 C 0.734375 -3.0625 0.941406 -3.273438 1.203125 -3.421875 C 1.460938 -3.578125 1.765625 -3.65625 2.109375 -3.65625 C 2.484375 -3.65625 2.800781 -3.5625 3.0625 -3.375 C 3.332031 -3.195312 3.523438 -2.960938 3.640625 -2.671875 L 3.640625 -3.609375 L 3.9375 -3.609375 L 3.9375 0 L 3.640625 0 L 3.640625 -0.953125 C 3.523438 -0.660156 3.332031 -0.421875 3.0625 -0.234375 C 2.800781 -0.046875 2.484375 0.046875 2.109375 0.046875 C 1.765625 0.046875 1.460938 -0.0234375 1.203125 -0.171875 C 0.941406 -0.328125 0.734375 -0.546875 0.578125 -0.828125 C 0.429688 -1.109375 0.359375 -1.4375 0.359375 -1.8125 Z M 3.640625 -1.8125 C 3.640625 -2.125 3.570312 -2.398438 3.4375 -2.640625 C 3.300781 -2.890625 3.117188 -3.078125 2.890625 -3.203125 C 2.671875 -3.335938 2.421875 -3.40625 2.140625 -3.40625 C 1.847656 -3.40625 1.585938 -3.335938 1.359375 -3.203125 C 1.140625 -3.078125 0.96875 -2.894531 0.84375 -2.65625 C 0.726562 -2.414062 0.671875 -2.132812 0.671875 -1.8125 C 0.671875 -1.476562 0.726562 -1.191406 0.84375 -0.953125 C 0.96875 -0.710938 1.140625 -0.53125 1.359375 -0.40625 C 1.585938 -0.28125 1.847656 -0.21875 2.140625 -0.21875 C 2.421875 -0.21875 2.675781 -0.28125 2.90625 -0.40625 C 3.132812 -0.539062 3.3125 -0.726562 3.4375 -0.96875 C 3.570312 -1.207031 3.640625 -1.488281 3.640625 -1.8125 Z M 3.640625 -1.8125 "/></g></g><g style="fill:#ffffff;fill-opacity:1;"><g transform="translate(88.207954, 43.186496)"><path style="stroke:none" d="M 0.984375 -3.359375 L 0.984375 -0.96875 C 0.984375 -0.695312 1.03125 -0.507812 1.125 -0.40625 C 1.226562 -0.3125 1.40625 -0.265625 1.65625 -0.265625 L 2.0625 -0.265625 L 2.0625 0 L 1.609375 0 C 1.296875 0 1.0625 -0.0703125 0.90625 -0.21875 C 0.757812 -0.375 0.6875 -0.625 0.6875 -0.96875 L 0.6875 -3.359375 L 0.140625 -3.359375 L 0.140625 -3.609375 L 0.6875 -3.609375 L 0.6875 -4.53125 L 0.984375 -4.53125 L 0.984375 -3.609375 L 2.0625 -3.609375 L 2.0625 -3.359375 Z M 0.984375 -3.359375 "/></g></g><g style="fill:#ffffff;fill-opacity:1;"><g transform="translate(90.263998, 43.186496)"><path style="stroke:none" d="M 0.703125 -4.421875 C 0.628906 -4.421875 0.566406 -4.441406 0.515625 -4.484375 C 0.472656 -4.535156 0.453125 -4.597656 0.453125 -4.671875 C 0.453125 -4.753906 0.472656 -4.816406 0.515625 -4.859375 C 0.566406 -4.910156 0.628906 -4.9375 0.703125 -4.9375 C 0.773438 -4.9375 0.832031 -4.910156 0.875 -4.859375 C 0.925781 -4.816406 0.953125 -4.753906 0.953125 -4.671875 C 0.953125 -4.597656 0.925781 -4.535156 0.875 -4.484375 C 0.832031 -4.441406 0.773438 -4.421875 0.703125 -4.421875 Z M 0.84375 -3.609375 L 0.84375 0 L 0.546875 0 L 0.546875 -3.609375 Z M 0.84375 -3.609375 "/></g></g><g style="fill:#ffffff;fill-opacity:1;"><g transform="translate(91.408327, 43.186496)"><path style="stroke:none" d="M 2.140625 0.046875 C 1.796875 0.046875 1.488281 -0.0234375 1.21875 -0.171875 C 0.945312 -0.328125 0.734375 -0.546875 0.578125 -0.828125 C 0.429688 -1.109375 0.359375 -1.4375 0.359375 -1.8125 C 0.359375 -2.1875 0.4375 -2.515625 0.59375 -2.796875 C 0.75 -3.078125 0.960938 -3.289062 1.234375 -3.4375 C 1.503906 -3.582031 1.8125 -3.65625 2.15625 -3.65625 C 2.488281 -3.65625 2.789062 -3.582031 3.0625 -3.4375 C 3.332031 -3.289062 3.539062 -3.078125 3.6875 -2.796875 C 3.84375 -2.515625 3.921875 -2.1875 3.921875 -1.8125 C 3.921875 -1.4375 3.84375 -1.109375 3.6875 -0.828125 C 3.539062 -0.546875 3.328125 -0.328125 3.046875 -0.171875 C 2.773438 -0.0234375 2.472656 0.046875 2.140625 0.046875 Z M 2.140625 -0.21875 C 2.398438 -0.21875 2.644531 -0.273438 2.875 -0.390625 C 3.101562 -0.503906 3.285156 -0.679688 3.421875 -0.921875 C 3.554688 -1.160156 3.625 -1.457031 3.625 -1.8125 C 3.625 -2.15625 3.554688 -2.445312 3.421875 -2.6875 C 3.285156 -2.925781 3.101562 -3.101562 2.875 -3.21875 C 2.644531 -3.34375 2.398438 -3.40625 2.140625 -3.40625 C 1.878906 -3.40625 1.632812 -3.34375 1.40625 -3.21875 C 1.1875 -3.101562 1.007812 -2.925781 0.875 -2.6875 C 0.738281 -2.445312 0.671875 -2.15625 0.671875 -1.8125 C 0.671875 -1.457031 0.738281 -1.160156 0.875 -0.921875 C 1.007812 -0.679688 1.1875 -0.503906 1.40625 -0.390625 C 1.632812 -0.273438 1.878906 -0.21875 2.140625 -0.21875 Z M 2.140625 -0.21875 "/></g></g><g style="fill:#ffffff;fill-opacity:1;"><g transform="translate(95.447509, 43.186496)"><path style="stroke:none" d="M 2.171875 -3.6875 C 2.609375 -3.6875 2.960938 -3.550781 3.234375 -3.28125 C 3.503906 -3.019531 3.640625 -2.628906 3.640625 -2.109375 L 3.640625 0 L 3.34375 0 L 3.34375 -2.09375 C 3.34375 -2.53125 3.234375 -2.859375 3.015625 -3.078125 C 2.796875 -3.304688 2.5 -3.421875 2.125 -3.421875 C 1.738281 -3.421875 1.425781 -3.296875 1.1875 -3.046875 C 0.957031 -2.804688 0.84375 -2.441406 0.84375 -1.953125 L 0.84375 0 L 0.546875 0 L 0.546875 -3.609375 L 0.84375 -3.609375 L 0.84375 -2.84375 C 0.945312 -3.113281 1.113281 -3.320312 1.34375 -3.46875 C 1.582031 -3.613281 1.859375 -3.6875 2.171875 -3.6875 Z M 2.171875 -3.6875 "/></g></g><g style="fill:#ffffff;fill-opacity:1;"><g transform="translate(99.341854, 43.186496)"><path style="stroke:none" d=""/></g></g></g></svg>