<svg xmlns="http://www.w3.org/2000/svg" xmlns:xlink="http://www.w3.org/1999/xlink" width="180" zoomAndPan="magnify" viewBox="0 0 135.12 60" height="70" preserveAspectRatio="xMidYMid meet" version="1.2"><defs><clipPath id="98cb0fead3"><path d="M 106 21 L 114 21 L 114 25.546875 L 106 25.546875 Z M 106 21 "/></clipPath><clipPath id="d82643764c"><path d="M 98.167969 7.34375 L 102 7.34375 L 102 15 L 98.167969 15 Z M 98.167969 7.34375 "/></clipPath></defs><g id="dfb22b9ce8"><path style=" stroke:none;fill-rule:nonzero;fill:#5bad89;fill-opacity:1;" d="M 110.847656 18.847656 C 108.183594 21.511719 102.578125 20.226562 102.578125 20.226562 C 102.578125 20.226562 101.292969 14.621094 103.957031 11.957031 C 106.621094 9.292969 112.226562 10.578125 112.226562 10.578125 C 112.226562 10.578125 113.511719 16.183594 110.847656 18.847656 Z M 110.847656 18.847656 "/><path style=" stroke:none;fill-rule:nonzero;fill:#63bc94;fill-opacity:1;" d="M 103.957031 11.957031 C 101.292969 14.621094 102.578125 20.226562 102.578125 20.226562 L 112.226562 10.578125 C 112.226562 10.578125 106.621094 9.292969 103.957031 11.957031 Z M 103.957031 11.957031 "/><g clip-rule="nonzero" clip-path="url(#98cb0fead3)"><path style=" stroke:none;fill-rule:nonzero;fill:#dbdbdb;fill-opacity:1;" d="M 108.304688 45.988281 L 106.828125 44.71875 C 110.171875 40.832031 112.015625 35.867188 112.015625 30.734375 C 112.015625 27.824219 111.441406 25 110.308594 22.34375 L 112.101562 21.582031 C 113.335938 24.480469 113.964844 27.558594 113.964844 30.734375 C 113.964844 36.335938 111.953125 41.753906 108.304688 45.988281 Z M 108.304688 45.988281 "/></g><g clip-rule="nonzero" clip-path="url(#d82643764c)"><path style=" stroke:none;fill-rule:nonzero;fill:#dbdbdb;fill-opacity:1;" d="M 76.128906 14.886719 L 74.816406 13.445312 C 79.132812 9.511719 84.726562 7.34375 90.570312 7.34375 C 94.480469 7.34375 98.351562 8.328125 101.761719 10.1875 L 100.824219 11.898438 C 97.703125 10.195312 94.15625 9.292969 90.570312 9.292969 C 85.214844 9.292969 80.085938 11.28125 76.128906 14.886719 Z M 76.128906 14.886719 "/></g><g style="fill:#373643;fill-opacity:1;"><g transform="translate(19.4326, 35.965513)"><path style="stroke:none" d="M 11.0625 -13.375 C 11.363281 -13.375 11.644531 -13.28125 11.90625 -13.09375 C 12.175781 -12.914062 12.3125 -12.644531 12.3125 -12.28125 L 12.3125 -1.140625 C 12.3125 -0.753906 12.175781 -0.46875 11.90625 -0.28125 C 11.644531 -0.09375 11.363281 0 11.0625 0 C 10.757812 0 10.484375 -0.09375 10.234375 -0.28125 C 9.992188 -0.46875 9.875 -0.753906 9.875 -1.140625 L 9.875 -5.453125 L 3.59375 -5.453125 L 3.59375 -1.140625 C 3.59375 -0.742188 3.460938 -0.453125 3.203125 -0.265625 C 2.953125 -0.0859375 2.691406 0 2.421875 0 C 2.109375 0 1.820312 -0.0976562 1.5625 -0.296875 C 1.300781 -0.492188 1.171875 -0.773438 1.171875 -1.140625 L 1.171875 -12.28125 C 1.171875 -12.644531 1.289062 -12.914062 1.53125 -13.09375 C 1.769531 -13.28125 2.046875 -13.375 2.359375 -13.375 C 2.660156 -13.375 2.941406 -13.28125 3.203125 -13.09375 C 3.460938 -12.914062 3.59375 -12.644531 3.59375 -12.28125 L 3.59375 -7.5 L 9.875 -7.5 L 9.875 -12.28125 C 9.875 -12.644531 9.992188 -12.914062 10.234375 -13.09375 C 10.484375 -13.28125 10.757812 -13.375 11.0625 -13.375 Z M 11.0625 -13.375 "/></g></g><g style="fill:#373643;fill-opacity:1;"><g transform="translate(32.97147, 35.965513)"><path style="stroke:none" d="M 9.765625 -10.6875 C 10.128906 -10.6875 10.421875 -10.582031 10.640625 -10.375 C 10.859375 -10.175781 10.96875 -9.914062 10.96875 -9.59375 L 10.96875 -1.09375 C 10.96875 -0.769531 10.859375 -0.503906 10.640625 -0.296875 C 10.421875 -0.0976562 10.128906 0 9.765625 0 C 9.410156 0 9.132812 -0.078125 8.9375 -0.234375 C 8.75 -0.398438 8.632812 -0.613281 8.59375 -0.875 C 8.113281 -0.5 7.578125 -0.222656 6.984375 -0.046875 C 6.398438 0.117188 5.84375 0.203125 5.3125 0.203125 C 4.300781 0.203125 3.425781 -0.0234375 2.6875 -0.484375 C 1.957031 -0.941406 1.394531 -1.59375 1 -2.4375 C 0.613281 -3.28125 0.421875 -4.257812 0.421875 -5.375 C 0.421875 -6.46875 0.632812 -7.425781 1.0625 -8.25 C 1.5 -9.070312 2.101562 -9.71875 2.875 -10.1875 C 3.65625 -10.664062 4.5625 -10.90625 5.59375 -10.90625 C 6.039062 -10.90625 6.535156 -10.816406 7.078125 -10.640625 C 7.617188 -10.472656 8.125 -10.207031 8.59375 -9.84375 C 8.644531 -10.101562 8.769531 -10.304688 8.96875 -10.453125 C 9.164062 -10.609375 9.429688 -10.6875 9.765625 -10.6875 Z M 5.5625 -1.90625 C 6.175781 -1.90625 6.769531 -2.039062 7.34375 -2.3125 C 7.925781 -2.59375 8.332031 -3 8.5625 -3.53125 L 8.5625 -7.15625 C 8.300781 -7.675781 7.90625 -8.078125 7.375 -8.359375 C 6.84375 -8.640625 6.300781 -8.78125 5.75 -8.78125 C 4.875 -8.78125 4.164062 -8.457031 3.625 -7.8125 C 3.082031 -7.164062 2.8125 -6.347656 2.8125 -5.359375 C 2.8125 -4.316406 3.0625 -3.476562 3.5625 -2.84375 C 4.070312 -2.21875 4.738281 -1.90625 5.5625 -1.90625 Z M 5.5625 -1.90625 "/></g></g><g style="fill:#373643;fill-opacity:1;"><g transform="translate(45.103953, 35.965513)"><path style="stroke:none" d="M 5.671875 -10.6875 C 6.046875 -10.6875 6.34375 -10.601562 6.5625 -10.4375 C 6.789062 -10.28125 6.90625 -10.019531 6.90625 -9.65625 C 6.90625 -9.320312 6.789062 -9.054688 6.5625 -8.859375 C 6.34375 -8.660156 6.046875 -8.5625 5.671875 -8.5625 C 4.785156 -8.5625 4.164062 -8.242188 3.8125 -7.609375 C 3.457031 -6.984375 3.28125 -6.132812 3.28125 -5.0625 L 3.28125 -1.078125 C 3.28125 -0.765625 3.164062 -0.503906 2.9375 -0.296875 C 2.71875 -0.0976562 2.445312 0 2.125 0 C 1.757812 0 1.460938 -0.0976562 1.234375 -0.296875 C 1.015625 -0.503906 0.90625 -0.765625 0.90625 -1.078125 L 0.90625 -9.625 C 0.90625 -9.957031 1.035156 -10.21875 1.296875 -10.40625 C 1.554688 -10.59375 1.832031 -10.6875 2.125 -10.6875 C 2.414062 -10.6875 2.679688 -10.59375 2.921875 -10.40625 C 3.160156 -10.226562 3.28125 -9.96875 3.28125 -9.625 L 3.28125 -9.484375 C 3.582031 -9.890625 3.9375 -10.191406 4.34375 -10.390625 C 4.75 -10.585938 5.191406 -10.6875 5.671875 -10.6875 Z M 5.671875 -10.6875 "/></g></g><g style="fill:#373643;fill-opacity:1;"><g transform="translate(51.37999, 35.965513)"><path style="stroke:none" d="M 15.375 -10.90625 C 16.351562 -10.90625 17.1875 -10.691406 17.875 -10.265625 C 18.5625 -9.835938 19.082031 -9.238281 19.4375 -8.46875 C 19.800781 -7.707031 19.984375 -6.820312 19.984375 -5.8125 L 19.984375 -1.09375 C 19.984375 -0.769531 19.882812 -0.503906 19.6875 -0.296875 C 19.488281 -0.0976562 19.191406 0 18.796875 0 C 18.441406 0 18.148438 -0.0976562 17.921875 -0.296875 C 17.703125 -0.503906 17.59375 -0.769531 17.59375 -1.09375 L 17.59375 -5.859375 C 17.59375 -6.722656 17.382812 -7.425781 16.96875 -7.96875 C 16.5625 -8.519531 15.914062 -8.796875 15.03125 -8.796875 C 14.582031 -8.796875 14.109375 -8.65625 13.609375 -8.375 C 13.117188 -8.09375 12.703125 -7.6875 12.359375 -7.15625 C 12.015625 -6.625 11.84375 -5.972656 11.84375 -5.203125 L 11.84375 -1.09375 C 11.84375 -0.769531 11.738281 -0.503906 11.53125 -0.296875 C 11.332031 -0.0976562 11.046875 0 10.671875 0 C 10.316406 0 10.023438 -0.0976562 9.796875 -0.296875 C 9.566406 -0.503906 9.453125 -0.769531 9.453125 -1.09375 L 9.453125 -5.859375 C 9.453125 -6.722656 9.242188 -7.425781 8.828125 -7.96875 C 8.421875 -8.519531 7.773438 -8.796875 6.890625 -8.796875 C 6.617188 -8.796875 6.304688 -8.722656 5.953125 -8.578125 C 5.609375 -8.429688 5.269531 -8.207031 4.9375 -7.90625 C 4.601562 -7.613281 4.328125 -7.242188 4.109375 -6.796875 C 3.890625 -6.347656 3.78125 -5.816406 3.78125 -5.203125 L 3.78125 -1.046875 C 3.78125 -0.703125 3.65625 -0.441406 3.40625 -0.265625 C 3.15625 -0.0859375 2.878906 0 2.578125 0 C 2.273438 0 2.003906 -0.0859375 1.765625 -0.265625 C 1.523438 -0.441406 1.40625 -0.703125 1.40625 -1.046875 L 1.40625 -9.625 C 1.40625 -9.914062 1.519531 -10.164062 1.75 -10.375 C 1.976562 -10.582031 2.253906 -10.6875 2.578125 -10.6875 C 2.941406 -10.6875 3.234375 -10.582031 3.453125 -10.375 C 3.671875 -10.164062 3.78125 -9.914062 3.78125 -9.625 L 3.78125 -9.5625 C 4.351562 -10.101562 4.941406 -10.460938 5.546875 -10.640625 C 6.148438 -10.816406 6.71875 -10.90625 7.25 -10.90625 C 8.125 -10.90625 8.882812 -10.722656 9.53125 -10.359375 C 10.175781 -10.003906 10.6875 -9.519531 11.0625 -8.90625 C 11.5 -9.4375 11.96875 -9.84375 12.46875 -10.125 C 12.976562 -10.414062 13.484375 -10.617188 13.984375 -10.734375 C 14.484375 -10.847656 14.945312 -10.90625 15.375 -10.90625 Z M 15.375 -10.90625 "/></g></g><g style="fill:#373643;fill-opacity:1;"><g transform="translate(73.000331, 35.965513)"><path style="stroke:none" d="M 6 -10.90625 C 7.125 -10.90625 8.101562 -10.664062 8.9375 -10.1875 C 9.78125 -9.71875 10.429688 -9.0625 10.890625 -8.21875 C 11.359375 -7.382812 11.59375 -6.410156 11.59375 -5.296875 C 11.582031 -4.203125 11.335938 -3.238281 10.859375 -2.40625 C 10.390625 -1.582031 9.738281 -0.941406 8.90625 -0.484375 C 8.082031 -0.0234375 7.113281 0.203125 6 0.203125 C 4.914062 0.203125 3.953125 -0.0234375 3.109375 -0.484375 C 2.265625 -0.941406 1.609375 -1.582031 1.140625 -2.40625 C 0.671875 -3.238281 0.429688 -4.203125 0.421875 -5.296875 C 0.421875 -6.410156 0.65625 -7.382812 1.125 -8.21875 C 1.59375 -9.0625 2.242188 -9.71875 3.078125 -10.1875 C 3.921875 -10.664062 4.894531 -10.90625 6 -10.90625 Z M 6 -1.890625 C 6.957031 -1.890625 7.71875 -2.203125 8.28125 -2.828125 C 8.851562 -3.460938 9.140625 -4.285156 9.140625 -5.296875 C 9.140625 -6.328125 8.851562 -7.164062 8.28125 -7.8125 C 7.71875 -8.46875 6.957031 -8.796875 6 -8.796875 C 5.0625 -8.796875 4.304688 -8.46875 3.734375 -7.8125 C 3.160156 -7.164062 2.875 -6.328125 2.875 -5.296875 C 2.875 -4.285156 3.160156 -3.460938 3.734375 -2.828125 C 4.304688 -2.203125 5.0625 -1.890625 6 -1.890625 Z M 6 -1.890625 "/></g></g><g style="fill:#373643;fill-opacity:1;"><g transform="translate(84.650023, 35.965513)"><path style="stroke:none" d="M 7.078125 -10.90625 C 8.054688 -10.90625 8.890625 -10.691406 9.578125 -10.265625 C 10.265625 -9.835938 10.789062 -9.242188 11.15625 -8.484375 C 11.519531 -7.722656 11.703125 -6.84375 11.703125 -5.84375 L 11.703125 -1.09375 C 11.703125 -0.769531 11.59375 -0.503906 11.375 -0.296875 C 11.164062 -0.0976562 10.875 0 10.5 0 C 10.144531 0 9.851562 -0.0976562 9.625 -0.296875 C 9.40625 -0.503906 9.296875 -0.769531 9.296875 -1.09375 L 9.296875 -5.875 C 9.296875 -6.75 9.085938 -7.453125 8.671875 -7.984375 C 8.265625 -8.523438 7.613281 -8.796875 6.71875 -8.796875 C 6.457031 -8.796875 6.140625 -8.722656 5.765625 -8.578125 C 5.390625 -8.429688 5.023438 -8.207031 4.671875 -7.90625 C 4.316406 -7.613281 4.019531 -7.242188 3.78125 -6.796875 C 3.550781 -6.347656 3.4375 -5.816406 3.4375 -5.203125 L 3.4375 -1.078125 C 3.4375 -0.359375 3.050781 0 2.28125 0 C 1.925781 0 1.628906 -0.09375 1.390625 -0.28125 C 1.160156 -0.46875 1.046875 -0.734375 1.046875 -1.078125 L 1.046875 -9.625 C 1.046875 -9.96875 1.164062 -10.226562 1.40625 -10.40625 C 1.65625 -10.59375 1.9375 -10.6875 2.25 -10.6875 C 2.539062 -10.6875 2.8125 -10.59375 3.0625 -10.40625 C 3.3125 -10.226562 3.4375 -9.976562 3.4375 -9.65625 L 3.4375 -9.515625 C 4.039062 -10.078125 4.664062 -10.445312 5.3125 -10.625 C 5.957031 -10.8125 6.546875 -10.90625 7.078125 -10.90625 Z M 7.078125 -10.90625 "/></g></g><g style="fill:#373643;fill-opacity:1;"><g transform="translate(97.391238, 35.965513)"><path style="stroke:none" d="M 3.15625 -12.265625 C 3.15625 -11.910156 3.023438 -11.644531 2.765625 -11.46875 C 2.503906 -11.300781 2.226562 -11.21875 1.9375 -11.21875 C 1.625 -11.21875 1.34375 -11.300781 1.09375 -11.46875 C 0.84375 -11.644531 0.71875 -11.910156 0.71875 -12.265625 L 0.71875 -12.53125 C 0.71875 -12.894531 0.84375 -13.160156 1.09375 -13.328125 C 1.34375 -13.503906 1.625 -13.59375 1.9375 -13.59375 C 2.226562 -13.59375 2.503906 -13.503906 2.765625 -13.328125 C 3.023438 -13.160156 3.15625 -12.894531 3.15625 -12.53125 Z M 0.734375 -9.65625 C 0.734375 -9.988281 0.863281 -10.242188 1.125 -10.421875 C 1.382812 -10.597656 1.65625 -10.6875 1.9375 -10.6875 C 2.226562 -10.6875 2.5 -10.597656 2.75 -10.421875 C 3 -10.242188 3.125 -10 3.125 -9.6875 L 3.125 -1.03125 C 3.125 -0.675781 3 -0.414062 2.75 -0.25 C 2.5 -0.0820312 2.226562 0 1.9375 0 C 1.65625 0 1.382812 -0.0820312 1.125 -0.25 C 0.863281 -0.414062 0.734375 -0.675781 0.734375 -1.03125 Z M 0.734375 -9.65625 "/></g></g><g style="fill:#373643;fill-opacity:1;"><g transform="translate(48.539854, 43.159053)"><path style="stroke:none" d="M 3.125 -4.671875 L 3.125 -4.421875 L 1.796875 -4.421875 L 1.796875 0 L 1.5 0 L 1.5 -4.421875 L 0.171875 -4.421875 L 0.171875 -4.671875 Z M 3.125 -4.671875 "/></g></g><g style="fill:#373643;fill-opacity:1;"><g transform="translate(51.575877, 43.159053)"><path style="stroke:none" d="M 2.5 -4.671875 L 2.5 -1.046875 C 2.5 -0.722656 2.394531 -0.457031 2.1875 -0.25 C 1.988281 -0.0507812 1.722656 0.046875 1.390625 0.046875 C 1.023438 0.046875 0.738281 -0.0625 0.53125 -0.28125 C 0.320312 -0.5 0.21875 -0.800781 0.21875 -1.1875 L 0.53125 -1.1875 C 0.53125 -0.90625 0.597656 -0.671875 0.734375 -0.484375 C 0.867188 -0.304688 1.085938 -0.21875 1.390625 -0.21875 C 1.671875 -0.21875 1.875 -0.296875 2 -0.453125 C 2.125 -0.617188 2.1875 -0.816406 2.1875 -1.046875 L 2.1875 -4.671875 Z M 2.5 -4.671875 "/></g></g><g style="fill:#373643;fill-opacity:1;"><g transform="translate(54.399289, 43.159053)"><path style="stroke:none" d="M 1.890625 0.046875 C 1.585938 0.046875 1.320312 -0.00390625 1.09375 -0.109375 C 0.875 -0.210938 0.703125 -0.351562 0.578125 -0.53125 C 0.453125 -0.71875 0.378906 -0.925781 0.359375 -1.15625 L 0.671875 -1.15625 C 0.703125 -0.90625 0.8125 -0.6875 1 -0.5 C 1.195312 -0.3125 1.492188 -0.21875 1.890625 -0.21875 C 2.128906 -0.21875 2.332031 -0.257812 2.5 -0.34375 C 2.664062 -0.425781 2.796875 -0.539062 2.890625 -0.6875 C 2.984375 -0.832031 3.03125 -0.992188 3.03125 -1.171875 C 3.03125 -1.398438 2.972656 -1.578125 2.859375 -1.703125 C 2.753906 -1.835938 2.617188 -1.9375 2.453125 -2 C 2.296875 -2.070312 2.082031 -2.144531 1.8125 -2.21875 C 1.507812 -2.300781 1.265625 -2.378906 1.078125 -2.453125 C 0.898438 -2.535156 0.742188 -2.660156 0.609375 -2.828125 C 0.484375 -2.992188 0.421875 -3.222656 0.421875 -3.515625 C 0.421875 -3.734375 0.476562 -3.9375 0.59375 -4.125 C 0.71875 -4.3125 0.890625 -4.457031 1.109375 -4.5625 C 1.328125 -4.664062 1.578125 -4.71875 1.859375 -4.71875 C 2.265625 -4.71875 2.59375 -4.613281 2.84375 -4.40625 C 3.101562 -4.207031 3.257812 -3.957031 3.3125 -3.65625 L 2.984375 -3.65625 C 2.960938 -3.78125 2.90625 -3.90625 2.8125 -4.03125 C 2.71875 -4.15625 2.585938 -4.253906 2.421875 -4.328125 C 2.253906 -4.410156 2.054688 -4.453125 1.828125 -4.453125 C 1.515625 -4.453125 1.25 -4.367188 1.03125 -4.203125 C 0.820312 -4.035156 0.71875 -3.804688 0.71875 -3.515625 C 0.71875 -3.296875 0.773438 -3.117188 0.890625 -2.984375 C 1.003906 -2.847656 1.140625 -2.742188 1.296875 -2.671875 C 1.460938 -2.597656 1.679688 -2.53125 1.953125 -2.46875 C 2.265625 -2.382812 2.507812 -2.300781 2.6875 -2.21875 C 2.863281 -2.144531 3.015625 -2.023438 3.140625 -1.859375 C 3.265625 -1.691406 3.328125 -1.460938 3.328125 -1.171875 C 3.328125 -0.960938 3.269531 -0.765625 3.15625 -0.578125 C 3.050781 -0.398438 2.890625 -0.25 2.671875 -0.125 C 2.460938 -0.0078125 2.203125 0.046875 1.890625 0.046875 Z M 1.890625 0.046875 "/></g></g><g style="fill:#373643;fill-opacity:1;"><g transform="translate(57.827309, 43.159053)"><path style="stroke:none" d="M 0.84375 -0.25 L 2.578125 -0.25 L 2.578125 0 L 0.546875 0 L 0.546875 -4.671875 L 0.84375 -4.671875 Z M 0.84375 -0.25 "/></g></g><g style="fill:#373643;fill-opacity:1;"><g transform="translate(60.285304, 43.159053)"><path style="stroke:none" d=""/></g></g><g style="fill:#373643;fill-opacity:1;"><g transform="translate(61.906147, 43.159053)"><path style="stroke:none" d="M 1.859375 -4.671875 C 2.648438 -4.671875 3.257812 -4.460938 3.6875 -4.046875 C 4.113281 -3.640625 4.328125 -3.066406 4.328125 -2.328125 C 4.328125 -1.585938 4.113281 -1.015625 3.6875 -0.609375 C 3.257812 -0.203125 2.648438 0 1.859375 0 L 0.546875 0 L 0.546875 -4.671875 Z M 1.859375 -0.25 C 2.566406 -0.25 3.101562 -0.429688 3.46875 -0.796875 C 3.832031 -1.160156 4.015625 -1.671875 4.015625 -2.328125 C 4.015625 -2.984375 3.832031 -3.492188 3.46875 -3.859375 C 3.101562 -4.234375 2.566406 -4.421875 1.859375 -4.421875 L 0.84375 -4.421875 L 0.84375 -0.25 Z M 1.859375 -0.25 "/></g></g><g style="fill:#373643;fill-opacity:1;"><g transform="translate(66.330771, 43.159053)"><path style="stroke:none" d="M 0.703125 -4.421875 C 0.628906 -4.421875 0.566406 -4.441406 0.515625 -4.484375 C 0.472656 -4.535156 0.453125 -4.597656 0.453125 -4.671875 C 0.453125 -4.753906 0.472656 -4.816406 0.515625 -4.859375 C 0.566406 -4.910156 0.628906 -4.9375 0.703125 -4.9375 C 0.773438 -4.9375 0.832031 -4.910156 0.875 -4.859375 C 0.925781 -4.816406 0.953125 -4.753906 0.953125 -4.671875 C 0.953125 -4.597656 0.925781 -4.535156 0.875 -4.484375 C 0.832031 -4.441406 0.773438 -4.421875 0.703125 -4.421875 Z M 0.84375 -3.609375 L 0.84375 0 L 0.546875 0 L 0.546875 -3.609375 Z M 0.84375 -3.609375 "/></g></g><g style="fill:#373643;fill-opacity:1;"><g transform="translate(67.473244, 43.159053)"><path style="stroke:none" d="M 2.109375 -3.65625 C 2.484375 -3.65625 2.800781 -3.5625 3.0625 -3.375 C 3.332031 -3.195312 3.523438 -2.960938 3.640625 -2.671875 L 3.640625 -3.609375 L 3.9375 -3.609375 L 3.9375 0.109375 C 3.9375 0.441406 3.863281 0.734375 3.71875 0.984375 C 3.570312 1.234375 3.375 1.425781 3.125 1.5625 C 2.875 1.695312 2.597656 1.765625 2.296875 1.765625 C 1.835938 1.765625 1.457031 1.65625 1.15625 1.4375 C 0.863281 1.226562 0.671875 0.9375 0.578125 0.5625 L 0.875 0.5625 C 0.96875 0.851562 1.132812 1.082031 1.375 1.25 C 1.625 1.425781 1.929688 1.515625 2.296875 1.515625 C 2.546875 1.515625 2.769531 1.457031 2.96875 1.34375 C 3.175781 1.226562 3.335938 1.066406 3.453125 0.859375 C 3.578125 0.648438 3.640625 0.398438 3.640625 0.109375 L 3.640625 -0.9375 C 3.523438 -0.65625 3.332031 -0.421875 3.0625 -0.234375 C 2.800781 -0.046875 2.484375 0.046875 2.109375 0.046875 C 1.765625 0.046875 1.460938 -0.0234375 1.203125 -0.171875 C 0.941406 -0.328125 0.734375 -0.546875 0.578125 -0.828125 C 0.429688 -1.109375 0.359375 -1.4375 0.359375 -1.8125 C 0.359375 -2.1875 0.429688 -2.507812 0.578125 -2.78125 C 0.734375 -3.0625 0.941406 -3.273438 1.203125 -3.421875 C 1.460938 -3.578125 1.765625 -3.65625 2.109375 -3.65625 Z M 3.640625 -1.8125 C 3.640625 -2.125 3.570312 -2.398438 3.4375 -2.640625 C 3.300781 -2.890625 3.117188 -3.078125 2.890625 -3.203125 C 2.671875 -3.335938 2.421875 -3.40625 2.140625 -3.40625 C 1.847656 -3.40625 1.585938 -3.335938 1.359375 -3.203125 C 1.140625 -3.078125 0.96875 -2.894531 0.84375 -2.65625 C 0.726562 -2.414062 0.671875 -2.132812 0.671875 -1.8125 C 0.671875 -1.476562 0.726562 -1.191406 0.84375 -0.953125 C 0.96875 -0.710938 1.140625 -0.53125 1.359375 -0.40625 C 1.585938 -0.28125 1.847656 -0.21875 2.140625 -0.21875 C 2.421875 -0.21875 2.675781 -0.28125 2.90625 -0.40625 C 3.132812 -0.539062 3.3125 -0.726562 3.4375 -0.96875 C 3.570312 -1.207031 3.640625 -1.488281 3.640625 -1.8125 Z M 3.640625 -1.8125 "/></g></g><g style="fill:#373643;fill-opacity:1;"><g transform="translate(71.691904, 43.159053)"><path style="stroke:none" d="M 0.703125 -4.421875 C 0.628906 -4.421875 0.566406 -4.441406 0.515625 -4.484375 C 0.472656 -4.535156 0.453125 -4.597656 0.453125 -4.671875 C 0.453125 -4.753906 0.472656 -4.816406 0.515625 -4.859375 C 0.566406 -4.910156 0.628906 -4.9375 0.703125 -4.9375 C 0.773438 -4.9375 0.832031 -4.910156 0.875 -4.859375 C 0.925781 -4.816406 0.953125 -4.753906 0.953125 -4.671875 C 0.953125 -4.597656 0.925781 -4.535156 0.875 -4.484375 C 0.832031 -4.441406 0.773438 -4.421875 0.703125 -4.421875 Z M 0.84375 -3.609375 L 0.84375 0 L 0.546875 0 L 0.546875 -3.609375 Z M 0.84375 -3.609375 "/></g></g><g style="fill:#373643;fill-opacity:1;"><g transform="translate(72.834377, 43.159053)"><path style="stroke:none" d="M 0.984375 -3.359375 L 0.984375 -0.96875 C 0.984375 -0.695312 1.03125 -0.507812 1.125 -0.40625 C 1.226562 -0.3125 1.40625 -0.265625 1.65625 -0.265625 L 2.0625 -0.265625 L 2.0625 0 L 1.609375 0 C 1.296875 0 1.0625 -0.0703125 0.90625 -0.21875 C 0.757812 -0.375 0.6875 -0.625 0.6875 -0.96875 L 0.6875 -3.359375 L 0.140625 -3.359375 L 0.140625 -3.609375 L 0.6875 -3.609375 L 0.6875 -4.53125 L 0.984375 -4.53125 L 0.984375 -3.609375 L 2.0625 -3.609375 L 2.0625 -3.359375 Z M 0.984375 -3.359375 "/></g></g><g style="fill:#373643;fill-opacity:1;"><g transform="translate(74.887085, 43.159053)"><path style="stroke:none" d="M 0.359375 -1.8125 C 0.359375 -2.1875 0.429688 -2.507812 0.578125 -2.78125 C 0.734375 -3.0625 0.941406 -3.273438 1.203125 -3.421875 C 1.460938 -3.578125 1.765625 -3.65625 2.109375 -3.65625 C 2.484375 -3.65625 2.800781 -3.5625 3.0625 -3.375 C 3.332031 -3.195312 3.523438 -2.960938 3.640625 -2.671875 L 3.640625 -3.609375 L 3.9375 -3.609375 L 3.9375 0 L 3.640625 0 L 3.640625 -0.953125 C 3.523438 -0.660156 3.332031 -0.421875 3.0625 -0.234375 C 2.800781 -0.046875 2.484375 0.046875 2.109375 0.046875 C 1.765625 0.046875 1.460938 -0.0234375 1.203125 -0.171875 C 0.941406 -0.328125 0.734375 -0.546875 0.578125 -0.828125 C 0.429688 -1.109375 0.359375 -1.4375 0.359375 -1.8125 Z M 3.640625 -1.8125 C 3.640625 -2.125 3.570312 -2.398438 3.4375 -2.640625 C 3.300781 -2.890625 3.117188 -3.078125 2.890625 -3.203125 C 2.671875 -3.335938 2.421875 -3.40625 2.140625 -3.40625 C 1.847656 -3.40625 1.585938 -3.335938 1.359375 -3.203125 C 1.140625 -3.078125 0.96875 -2.894531 0.84375 -2.65625 C 0.726562 -2.414062 0.671875 -2.132812 0.671875 -1.8125 C 0.671875 -1.476562 0.726562 -1.191406 0.84375 -0.953125 C 0.96875 -0.710938 1.140625 -0.53125 1.359375 -0.40625 C 1.585938 -0.28125 1.847656 -0.21875 2.140625 -0.21875 C 2.421875 -0.21875 2.675781 -0.28125 2.90625 -0.40625 C 3.132812 -0.539062 3.3125 -0.726562 3.4375 -0.96875 C 3.570312 -1.207031 3.640625 -1.488281 3.640625 -1.8125 Z M 3.640625 -1.8125 "/></g></g><g style="fill:#373643;fill-opacity:1;"><g transform="translate(79.105746, 43.159053)"><path style="stroke:none" d="M 0.84375 -4.921875 L 0.84375 0 L 0.546875 0 L 0.546875 -4.921875 Z M 0.84375 -4.921875 "/></g></g><g style="fill:#373643;fill-opacity:1;"><g transform="translate(80.248218, 43.159053)"><path style="stroke:none" d="M 0.703125 -4.421875 C 0.628906 -4.421875 0.566406 -4.441406 0.515625 -4.484375 C 0.472656 -4.535156 0.453125 -4.597656 0.453125 -4.671875 C 0.453125 -4.753906 0.472656 -4.816406 0.515625 -4.859375 C 0.566406 -4.910156 0.628906 -4.9375 0.703125 -4.9375 C 0.773438 -4.9375 0.832031 -4.910156 0.875 -4.859375 C 0.925781 -4.816406 0.953125 -4.753906 0.953125 -4.671875 C 0.953125 -4.597656 0.925781 -4.535156 0.875 -4.484375 C 0.832031 -4.441406 0.773438 -4.421875 0.703125 -4.421875 Z M 0.84375 -3.609375 L 0.84375 0 L 0.546875 0 L 0.546875 -3.609375 Z M 0.84375 -3.609375 "/></g></g><g style="fill:#373643;fill-opacity:1;"><g transform="translate(81.39069, 43.159053)"><path style="stroke:none" d="M 0.5625 -0.25 L 2.59375 -0.25 L 2.59375 0 L 0.21875 0 L 0.21875 -0.25 L 2.203125 -3.359375 L 0.265625 -3.359375 L 0.265625 -3.609375 L 2.546875 -3.609375 L 2.546875 -3.359375 Z M 0.5625 -0.25 "/></g></g><g style="fill:#373643;fill-opacity:1;"><g transform="translate(83.954985, 43.159053)"><path style="stroke:none" d="M 0.359375 -1.8125 C 0.359375 -2.1875 0.429688 -2.507812 0.578125 -2.78125 C 0.734375 -3.0625 0.941406 -3.273438 1.203125 -3.421875 C 1.460938 -3.578125 1.765625 -3.65625 2.109375 -3.65625 C 2.484375 -3.65625 2.800781 -3.5625 3.0625 -3.375 C 3.332031 -3.195312 3.523438 -2.960938 3.640625 -2.671875 L 3.640625 -3.609375 L 3.9375 -3.609375 L 3.9375 0 L 3.640625 0 L 3.640625 -0.953125 C 3.523438 -0.660156 3.332031 -0.421875 3.0625 -0.234375 C 2.800781 -0.046875 2.484375 0.046875 2.109375 0.046875 C 1.765625 0.046875 1.460938 -0.0234375 1.203125 -0.171875 C 0.941406 -0.328125 0.734375 -0.546875 0.578125 -0.828125 C 0.429688 -1.109375 0.359375 -1.4375 0.359375 -1.8125 Z M 3.640625 -1.8125 C 3.640625 -2.125 3.570312 -2.398438 3.4375 -2.640625 C 3.300781 -2.890625 3.117188 -3.078125 2.890625 -3.203125 C 2.671875 -3.335938 2.421875 -3.40625 2.140625 -3.40625 C 1.847656 -3.40625 1.585938 -3.335938 1.359375 -3.203125 C 1.140625 -3.078125 0.96875 -2.894531 0.84375 -2.65625 C 0.726562 -2.414062 0.671875 -2.132812 0.671875 -1.8125 C 0.671875 -1.476562 0.726562 -1.191406 0.84375 -0.953125 C 0.96875 -0.710938 1.140625 -0.53125 1.359375 -0.40625 C 1.585938 -0.28125 1.847656 -0.21875 2.140625 -0.21875 C 2.421875 -0.21875 2.675781 -0.28125 2.90625 -0.40625 C 3.132812 -0.539062 3.3125 -0.726562 3.4375 -0.96875 C 3.570312 -1.207031 3.640625 -1.488281 3.640625 -1.8125 Z M 3.640625 -1.8125 "/></g></g><g style="fill:#373643;fill-opacity:1;"><g transform="translate(88.173646, 43.159053)"><path style="stroke:none" d="M 0.984375 -3.359375 L 0.984375 -0.96875 C 0.984375 -0.695312 1.03125 -0.507812 1.125 -0.40625 C 1.226562 -0.3125 1.40625 -0.265625 1.65625 -0.265625 L 2.0625 -0.265625 L 2.0625 0 L 1.609375 0 C 1.296875 0 1.0625 -0.0703125 0.90625 -0.21875 C 0.757812 -0.375 0.6875 -0.625 0.6875 -0.96875 L 0.6875 -3.359375 L 0.140625 -3.359375 L 0.140625 -3.609375 L 0.6875 -3.609375 L 0.6875 -4.53125 L 0.984375 -4.53125 L 0.984375 -3.609375 L 2.0625 -3.609375 L 2.0625 -3.359375 Z M 0.984375 -3.359375 "/></g></g><g style="fill:#373643;fill-opacity:1;"><g transform="translate(90.226354, 43.159053)"><path style="stroke:none" d="M 0.703125 -4.421875 C 0.628906 -4.421875 0.566406 -4.441406 0.515625 -4.484375 C 0.472656 -4.535156 0.453125 -4.597656 0.453125 -4.671875 C 0.453125 -4.753906 0.472656 -4.816406 0.515625 -4.859375 C 0.566406 -4.910156 0.628906 -4.9375 0.703125 -4.9375 C 0.773438 -4.9375 0.832031 -4.910156 0.875 -4.859375 C 0.925781 -4.816406 0.953125 -4.753906 0.953125 -4.671875 C 0.953125 -4.597656 0.925781 -4.535156 0.875 -4.484375 C 0.832031 -4.441406 0.773438 -4.421875 0.703125 -4.421875 Z M 0.84375 -3.609375 L 0.84375 0 L 0.546875 0 L 0.546875 -3.609375 Z M 0.84375 -3.609375 "/></g></g><g style="fill:#373643;fill-opacity:1;"><g transform="translate(91.368827, 43.159053)"><path style="stroke:none" d="M 2.140625 0.046875 C 1.796875 0.046875 1.488281 -0.0234375 1.21875 -0.171875 C 0.945312 -0.328125 0.734375 -0.546875 0.578125 -0.828125 C 0.429688 -1.109375 0.359375 -1.4375 0.359375 -1.8125 C 0.359375 -2.1875 0.4375 -2.515625 0.59375 -2.796875 C 0.75 -3.078125 0.960938 -3.289062 1.234375 -3.4375 C 1.503906 -3.582031 1.8125 -3.65625 2.15625 -3.65625 C 2.488281 -3.65625 2.789062 -3.582031 3.0625 -3.4375 C 3.332031 -3.289062 3.539062 -3.078125 3.6875 -2.796875 C 3.84375 -2.515625 3.921875 -2.1875 3.921875 -1.8125 C 3.921875 -1.4375 3.84375 -1.109375 3.6875 -0.828125 C 3.539062 -0.546875 3.328125 -0.328125 3.046875 -0.171875 C 2.773438 -0.0234375 2.472656 0.046875 2.140625 0.046875 Z M 2.140625 -0.21875 C 2.398438 -0.21875 2.644531 -0.273438 2.875 -0.390625 C 3.101562 -0.503906 3.285156 -0.679688 3.421875 -0.921875 C 3.554688 -1.160156 3.625 -1.457031 3.625 -1.8125 C 3.625 -2.15625 3.554688 -2.445312 3.421875 -2.6875 C 3.285156 -2.925781 3.101562 -3.101562 2.875 -3.21875 C 2.644531 -3.34375 2.398438 -3.40625 2.140625 -3.40625 C 1.878906 -3.40625 1.632812 -3.34375 1.40625 -3.21875 C 1.1875 -3.101562 1.007812 -2.925781 0.875 -2.6875 C 0.738281 -2.445312 0.671875 -2.15625 0.671875 -1.8125 C 0.671875 -1.457031 0.738281 -1.160156 0.875 -0.921875 C 1.007812 -0.679688 1.1875 -0.503906 1.40625 -0.390625 C 1.632812 -0.273438 1.878906 -0.21875 2.140625 -0.21875 Z M 2.140625 -0.21875 "/></g></g><g style="fill:#373643;fill-opacity:1;"><g transform="translate(95.401455, 43.159053)"><path style="stroke:none" d="M 2.171875 -3.6875 C 2.609375 -3.6875 2.960938 -3.550781 3.234375 -3.28125 C 3.503906 -3.019531 3.640625 -2.628906 3.640625 -2.109375 L 3.640625 0 L 3.34375 0 L 3.34375 -2.09375 C 3.34375 -2.53125 3.234375 -2.859375 3.015625 -3.078125 C 2.796875 -3.304688 2.5 -3.421875 2.125 -3.421875 C 1.738281 -3.421875 1.425781 -3.296875 1.1875 -3.046875 C 0.957031 -2.804688 0.84375 -2.441406 0.84375 -1.953125 L 0.84375 0 L 0.546875 0 L 0.546875 -3.609375 L 0.84375 -3.609375 L 0.84375 -2.84375 C 0.945312 -3.113281 1.113281 -3.320312 1.34375 -3.46875 C 1.582031 -3.613281 1.859375 -3.6875 2.171875 -3.6875 Z M 2.171875 -3.6875 "/></g></g><g style="fill:#373643;fill-opacity:1;"><g transform="translate(99.289482, 43.159053)"><path style="stroke:none" d=""/></g></g></g></svg>