<?xml version="1.0" encoding="UTF-8"?>
<svg version="1.1" xmlns="http://www.w3.org/2000/svg" width="1464" height="563">
<path d="M0 0 C6.35957264 4.83429448 11.75700926 10.21719085 16 17 C19.26510303 16.2170827 19.26510303 16.2170827 21.3125 13.0625 C33.24670982 -1.25855178 52.94300289 -8.90377019 71 -11 C91.84375631 -12.25575178 112.12559129 -9.83234473 128.4375 4.4375 C129.97834167 5.93805823 131.50088957 7.4577497 133 9 C133.63421875 9.61359375 134.2684375 10.2271875 134.921875 10.859375 C152.13500807 28.68182251 153.32179165 55.08987209 153.30078125 78.375 C153.3046794 80.1976735 153.30901632 82.0203461 153.31376648 83.84301758 C153.32116533 87.63154066 153.32098088 91.41997039 153.31567383 95.20849609 C153.30984212 100.05137564 153.32692951 104.89387733 153.3500185 109.73669434 C153.36476493 113.48742891 153.36562708 117.23807214 153.36250877 120.98883057 C153.36302003 122.77493039 153.36822089 124.56103559 153.37832069 126.34710693 C153.39070619 128.83972852 153.38388468 131.33160839 153.37231445 133.82421875 C153.37995819 134.55159744 153.38760193 135.27897614 153.39547729 136.02839661 C153.3383835 141.61477627 152.23606474 146.46237946 148.46484375 150.7421875 C141.53508398 155.88190702 135.3875393 155.62554127 127 155 C122.76636843 153.79726376 120.46551284 151.5512652 117.625 148.1875 C114.6728541 142.39675228 114.85137944 136.16409162 114.84228516 129.77661133 C114.83720444 128.9853183 114.83212372 128.19402527 114.82688904 127.37875366 C114.81624296 125.67098381 114.80760053 123.96320052 114.80076981 122.25541115 C114.78888757 119.54208462 114.76941062 116.8289107 114.74765015 114.11564636 C114.68635368 106.40454265 114.63211932 98.69345655 114.59863281 90.98217773 C114.57755437 86.25365789 114.54214912 81.52542083 114.49787521 76.79706383 C114.48382156 75.00676513 114.47501713 73.21641645 114.47182083 71.42606544 C114.44312991 56.89192967 113.74380516 43.66990618 104 32 C101.19944071 29.49585027 98.35340232 27.67955755 95 26 C94.33613281 25.66226563 93.67226563 25.32453125 92.98828125 24.9765625 C84.34793828 21.38876294 72.88484393 21.65113253 64.125 24.625 C49.89512966 30.71435893 40.00274772 39.61912678 33.70703125 53.94140625 C30.98268623 61.17026398 29.87896689 67.69336523 29.8581543 75.43896484 C29.85467987 76.15850845 29.85120544 76.87805206 29.84762573 77.61940002 C29.8403083 79.17277643 29.83494169 80.72616301 29.83133507 82.27955246 C29.82412234 84.74387667 29.80842113 87.20800717 29.78999329 89.67227173 C29.73774352 96.67569354 29.68956163 103.67900454 29.67407227 110.68261719 C29.66395831 114.97562987 29.63455403 119.26814651 29.59275246 123.56096268 C29.58049241 125.18988916 29.57531202 126.81888582 29.57755089 128.4478569 C29.59403796 144.35502415 29.59403796 144.35502415 25 151 C19.49445934 155.89381392 13.77638667 155.47266009 6.62109375 155.53125 C1.26749233 154.74582412 -1.78952586 152.37405173 -5.3125 148.375 C-8.18620904 144.33052061 -8.1565119 141.28044331 -8.17358398 136.4519043 C-8.180271 135.67270126 -8.18695801 134.89349823 -8.19384766 134.09068298 C-8.20791902 132.39374556 -8.21980639 130.69678898 -8.22979546 128.99982262 C-8.2462204 126.3034269 -8.26946618 123.60716976 -8.29469299 120.9108429 C-8.36537571 113.24230911 -8.42518097 105.57371439 -8.47680664 97.9050293 C-8.50886246 93.21474429 -8.55021761 88.52461172 -8.59700203 83.83445168 C-8.61288301 82.0561381 -8.62526757 80.27778937 -8.63390923 78.49942589 C-8.56668643 53.24451586 -8.56668643 53.24451586 -20.125 31.53125 C-30.16054484 23.33555505 -40.51236146 21.947497 -53 23 C-64.95625707 25.27445507 -76.24520358 33.73557195 -83.3515625 43.390625 C-92.69553177 58.18155266 -93.18076204 73.26622472 -93.02734375 90.3203125 C-93.02037601 91.67308189 -93.0141708 93.02585539 -93.00868225 94.37863159 C-92.9845084 100.06451241 -92.94868671 105.75027915 -92.90405273 111.43603516 C-92.87709528 114.93706411 -92.86017154 118.43803046 -92.84918404 121.93914413 C-92.84007328 123.89601316 -92.81971042 125.85281959 -92.79905701 127.80960083 C-92.75469551 143.63204327 -92.75469551 143.63204327 -97 150 C-97.66 150 -98.32 150 -99 150 C-99 150.66 -99 151.32 -99 152 C-105.4490702 155.59948104 -111.71788958 155.81728604 -119 155 C-124.37641742 153.35073504 -127.39886294 149.90214291 -130 145 C-130.89998997 141.44062204 -131.12905568 138.11163981 -131.14044189 134.44805908 C-131.14615204 133.34352386 -131.15186218 132.23898865 -131.15774536 131.10098267 C-131.15886322 129.89880096 -131.15998108 128.69661926 -131.16113281 127.45800781 C-131.16609772 126.184263 -131.17106262 124.91051819 -131.17617798 123.59817505 C-131.18926322 120.11037526 -131.19573941 116.62259469 -131.20018864 113.13477421 C-131.20312581 110.9525254 -131.20723183 108.77028177 -131.21169281 106.58803558 C-131.22535792 99.75098421 -131.23502923 92.91394477 -131.2388947 86.07688069 C-131.2433723 78.20181467 -131.2609104 70.32692249 -131.2898953 62.4519093 C-131.31155808 56.35320092 -131.32160144 50.25454128 -131.32293582 44.15579486 C-131.32398062 40.51866379 -131.32981868 36.88169636 -131.34775543 33.24460602 C-131.36739789 29.18282128 -131.36292891 25.12139743 -131.35644531 21.05957031 C-131.3656601 19.86548553 -131.37487488 18.67140076 -131.3843689 17.44113159 C-131.3479008 10.13452003 -131.17408258 2.53244674 -126.0625 -3.15625 C-125.381875 -3.5996875 -124.70125 -4.043125 -124 -4.5 C-123.319375 -4.9640625 -122.63875 -5.428125 -121.9375 -5.90625 C-117.16681342 -8.59937952 -112.32858306 -8.56838219 -107 -8 C-101.72727974 -6.34722227 -97.89560636 -3.78888743 -95 1 C-94.15662201 3.32655998 -93.56883147 5.58246627 -93 8 C-92.48953125 7.49210937 -91.9790625 6.98421875 -91.453125 6.4609375 C-67.69206055 -16.03624054 -27.03357352 -17.22044964 0 0 Z " fill="#363542" transform="translate(648,274)"/>
<path d="M0 0 C0.48404266 2.62418097 0.96229498 5.24921597 1.4375 7.875 C1.57220703 8.60203125 1.70691406 9.3290625 1.84570312 10.078125 C3.96514889 21.86431119 4.24148957 33.49260185 4.25 45.4375 C4.25067474 46.28693176 4.25134949 47.13636353 4.25204468 48.01153564 C4.23662577 60.21610851 4.04064843 72.10974784 1 84 C0.83371094 84.67498535 0.66742187 85.3499707 0.49609375 86.04541016 C-3.65671467 102.32980244 -10.93292576 117.13607516 -23 129 C-23.66 129 -24.32 129 -25 129 C-25 129.66 -25 130.32 -25 131 C-47.99143068 148.470692 -74.77471048 152.2215433 -102.8125 152.25 C-104.11184479 152.25250763 -104.11184479 152.25250763 -105.43743896 152.25506592 C-118.44808102 152.25657202 -131.26041461 151.92339959 -144 149 C-145.44246094 148.71769531 -145.44246094 148.71769531 -146.9140625 148.4296875 C-149 147 -149 147 -150.109375 143.21875 C-150.34614341 141.64916165 -150.55876406 140.07578415 -150.75 138.5 C-150.86214844 137.73429688 -150.97429687 136.96859375 -151.08984375 136.1796875 C-151.42955645 133.78970873 -151.71997484 131.39765491 -152 129 C-152.09571289 128.2579834 -152.19142578 127.5159668 -152.29003906 126.75146484 C-153.23104223 118.73270128 -153.24349632 110.68768762 -153.25 102.625 C-153.25101212 101.49482956 -153.25101212 101.49482956 -153.25204468 100.34182739 C-153.23502229 88.34900165 -152.70695799 76.73103942 -150 65 C-149.83371094 64.27119629 -149.66742187 63.54239258 -149.49609375 62.79150391 C-144.46459002 41.71043504 -134.07701433 23.29695841 -115.8828125 10.87109375 C-83.09767412 -9.08013942 -36.17037883 -10.06596814 0 0 Z " fill="#62BB93" transform="translate(1425,43)"/>
<path d="M0 0 C4.6582101 4.59291168 5.45471569 9.63941692 5.56762695 15.9765625 C5.58456013 19.19388177 5.54035012 22.40816709 5.48828125 25.625 C5.48091882 27.14582402 5.47582471 28.66666074 5.47302246 30.1875 C5.44693533 35.79186139 5.37712867 41.39595055 5.3125 47 C5.209375 59.54 5.10625 72.08 5 85 C36.02 85 67.04 85 99 85 C98.92094304 61.33589148 98.92094304 61.33589148 98.81982422 37.671875 C98.81079102 33.07421875 98.81079102 33.07421875 98.80911255 30.91552734 C98.80606006 29.42170009 98.79906498 27.92787747 98.78884888 26.43408203 C98.77408047 24.15909384 98.77219228 21.88440437 98.77294922 19.609375 C98.768508 18.33030273 98.76406677 17.05123047 98.75949097 15.73339844 C99.17457638 9.29006777 100.20825437 3.65864159 105 -1 C110.36968472 -4.57978982 116.8607628 -5.81907167 123.2109375 -4.5625 C128.41931618 -2.8064183 133.02664131 0.07070194 136.1473484 4.7031498 C137.33208243 7.89455483 137.28253108 10.95409587 137.26742554 14.31210327 C137.27195665 15.05041055 137.27648776 15.78871783 137.28115618 16.54939806 C137.29382064 19.02436929 137.29217851 21.49912104 137.29052734 23.97412109 C137.29651131 25.74820743 137.30331655 27.52229116 137.31088257 29.29637146 C137.32856294 34.11664557 137.3332388 38.93684868 137.33451414 43.75715208 C137.33641274 47.78054131 137.34376981 51.80391399 137.35085833 55.82729685 C137.36714754 65.31944341 137.37202679 74.81155202 137.37060547 84.30371094 C137.3694038 94.09672891 137.39050955 103.88952658 137.4220928 113.6824888 C137.44824013 122.08939825 137.45897342 130.49623568 137.45769465 138.90318549 C137.45718457 143.9246753 137.462893 148.94596935 137.48405075 153.96741867 C137.5034072 158.69035769 137.50357539 163.41291368 137.48901749 168.13586617 C137.48692508 169.86846666 137.49165596 171.60109096 137.5037384 173.33365059 C137.51917646 175.70086074 137.5098935 178.06674777 137.49447632 180.43392944 C137.50476344 181.11798556 137.51505057 181.80204167 137.52564943 182.50682676 C137.44393081 188.19285861 135.26391175 191.69317049 131.3515625 195.6796875 C125.06634105 200.03099466 118.41278633 199.97157879 111 199 C106.5048605 196.90743506 103.65891385 194.17829319 101 190 C98.41016949 182.39763149 98.74450636 174.71402893 98.8046875 166.78125 C98.80670166 165.49186523 98.80871582 164.20248047 98.81079102 162.87402344 C98.82121195 158.08264582 98.84913438 153.29131913 98.875 148.5 C98.91625 137.775 98.9575 127.05 99 116 C67.98 116 36.96 116 5 116 C5.15809817 138.67695004 5.15809817 138.67695004 5.36035156 161.35351562 C5.37841797 165.76074219 5.37841797 165.76074219 5.3817749 167.83044434 C5.38787746 169.26181018 5.40186281 170.69315673 5.42230225 172.12438965 C5.64864644 188.82285315 5.64864644 188.82285315 -0.68359375 195.875 C-6.78255268 199.78702711 -12.92132371 200.09582504 -20 199 C-25.70478329 196.87309817 -29.13850252 193.37961527 -32 188 C-33.23301466 184.34827305 -33.13146268 180.79783556 -33.14044189 176.96710205 C-33.14341302 176.25879077 -33.14638414 175.55047948 -33.1494453 174.82070422 C-33.15811704 172.44718927 -33.15963925 170.07372485 -33.16113281 167.70019531 C-33.16576209 165.99832044 -33.17078689 164.2964466 -33.17617798 162.59457397 C-33.18929392 157.97045461 -33.19574543 153.34634976 -33.20018864 148.7222147 C-33.20312081 145.83225116 -33.20722591 142.94229157 -33.21169281 140.05233002 C-33.22536596 131.00745196 -33.23503337 121.96258296 -33.2388947 112.91769528 C-33.24337439 102.4821048 -33.2609189 92.04664536 -33.2898953 81.61109471 C-33.31152362 73.54131403 -33.32159961 65.47157018 -33.32293582 57.40176082 C-33.32398307 52.58367928 -33.32987385 47.76572097 -33.34775543 42.94766998 C-33.36425587 38.41356094 -33.36638204 33.87966749 -33.35761642 29.34553909 C-33.35684709 27.68473101 -33.36117506 26.02391124 -33.37107468 24.36313248 C-33.47502965 5.83125654 -33.47502965 5.83125654 -28.1328125 -0.05859375 C-19.35643299 -6.08595166 -8.71382415 -7.15638743 0 0 Z " fill="#363542" transform="translate(61,230)"/>
<path d="M0 0 C0.4125 -0.7425 0.825 -1.485 1.25 -2.25 C3.8131679 -6.27783527 5.67838288 -8.48171878 10.1875 -10.25 C18.2234367 -11.83084001 23.59865514 -11.43393578 30.89453125 -7.4296875 C34.85270513 -4.74194791 36.07527931 -1.50873482 37 3 C37.09633063 4.86157857 37.13911507 6.72621911 37.14717102 8.590271 C37.15790398 10.29766449 37.15790398 10.29766449 37.16885376 12.03955078 C37.17154266 13.28430176 37.17423157 14.52905273 37.17700195 15.81152344 C37.18357315 17.1257428 37.19014435 18.43996216 37.19691467 19.79400635 C37.21791385 24.1491169 37.22831311 28.50422764 37.23828125 32.859375 C37.24233034 34.36116809 37.24644731 35.862961 37.25063133 37.36475372 C37.26967383 44.42125095 37.28390688 51.47773778 37.2922433 58.53425574 C37.30201286 66.66861133 37.32832877 74.8026946 37.36874419 82.93695426 C37.39894281 89.2318023 37.41371571 95.52657243 37.41702431 101.82149148 C37.4193705 105.57770909 37.42827435 109.33363545 37.45348549 113.08977509 C37.47683727 116.62589674 37.48097137 120.16153686 37.47072411 123.69771576 C37.46999601 125.6046309 37.48903707 127.51152198 37.50878906 129.41833496 C37.46645241 136.4271229 36.81378916 141.05898481 33 147 C27.27382514 152.44684926 22.07909469 152.3519752 14.4609375 152.2734375 C9.66541041 151.89455838 7.6668247 151.10882963 4 148 C2.37405372 145.71976903 1.22218845 143.54215198 0 141 C-0.59425781 141.30292969 -1.18851562 141.60585938 -1.80078125 141.91796875 C-4.52578959 143.29530578 -7.26242085 144.6478354 -10 146 C-11.26263672 146.64582031 -11.26263672 146.64582031 -12.55078125 147.3046875 C-31.95498337 156.78595166 -54.66132447 158.61855607 -75.3125 152.25 C-84.64642778 148.82250078 -93.77212388 143.92448379 -101 137 C-101 136.34 -101 135.68 -101 135 C-101.56847656 134.80277344 -102.13695312 134.60554687 -102.72265625 134.40234375 C-105.90617849 132.44199301 -107.51417717 129.67558778 -109.4375 126.5625 C-109.83219482 125.93069824 -110.22688965 125.29889648 -110.63354492 124.64794922 C-124.60971816 101.88239899 -128.27053659 71.8521538 -122.3125 45.875 C-120.63406152 39.21619049 -118.27698471 33.03075338 -115 27 C-114.50886719 26.03964844 -114.01773438 25.07929688 -113.51171875 24.08984375 C-103.15078636 4.92582798 -87.42914744 -5.67618206 -67 -12 C-43.89718018 -18.78338114 -20.07356556 -11.9123432 0 0 Z M-76.3125 34.6875 C-86.84582005 48.7106473 -88.79777985 65.93000929 -86.46484375 82.890625 C-83.61907353 97.25943199 -77.64903832 109.86137475 -65.234375 118.18359375 C-54.30982988 124.44914169 -40.89423944 123.70806344 -29 121 C-19.3987338 118.31996529 -11.62084251 113.43914889 -5 106 C-4.30938477 105.22962402 -3.61876953 104.45924805 -2.90722656 103.66552734 C0.31849017 98.71590975 -0.38988141 92.69969446 -0.3984375 87.0078125 C-0.38558212 85.1179512 -0.38558212 85.1179512 -0.37246704 83.18991089 C-0.36099485 80.52821834 -0.35808835 77.86808095 -0.36865234 75.20654297 C-0.38022859 71.8144987 -0.34640011 68.42464353 -0.299963 65.03296089 C-0.26321534 61.77459698 -0.27086282 58.51634604 -0.2734375 55.2578125 C-0.25501801 54.04924591 -0.23659851 52.84067932 -0.21762085 51.5954895 C-0.3014978 43.9115604 -1.54813629 39.49540356 -7 34 C-7.65484375 33.29488281 -8.3096875 32.58976562 -8.984375 31.86328125 C-19.3569437 22.7528614 -31.86001733 18.26314106 -45.66796875 18.65625 C-58.18370133 19.94743929 -68.13851313 25.18676527 -76.3125 34.6875 Z " fill="#363543" transform="translate(347,277)"/>
<path d="M0 0 C17.53528355 14.64515757 26.19699835 35.52940295 28.5 57.8125 C30.43468982 82.99864383 24.46139509 106.50350681 8.05859375 126.0078125 C-9.09330792 144.11089297 -31.57388099 151.54925294 -55.94921875 152.3359375 C-78.70467505 152.56994905 -101.01667931 145.45289141 -117.82373047 129.77807617 C-134.17795961 113.72389983 -141.98457745 91.29214524 -142.36645508 68.66650391 C-142.45342599 44.7072615 -135.30298502 23.28485402 -119.125 5.3125 C-87.66834358 -24.75504481 -34.37109387 -25.95044067 0 0 Z M-75.125 18.3125 C-75.81722656 18.5909375 -76.50945312 18.869375 -77.22265625 19.15625 C-88.7032093 24.28821206 -95.52110344 33.9658721 -100.4375 45.25 C-105.94214993 60.38778731 -105.3521477 77.4737588 -99.125 92.3125 C-96.23337988 98.10368425 -93.02908244 103.02142786 -88.125 107.3125 C-87.17625 108.158125 -86.2275 109.00375 -85.25 109.875 C-75.35791334 117.59082759 -63.66048425 120.61234425 -51.125 119.3125 C-37.86157139 117.08465848 -27.56183459 111.98219869 -19.125 101.3125 C-9.31799988 85.9683643 -7.31568331 68.94708502 -11.125 51.3125 C-13.43835416 43.2331541 -16.67944889 36.68592435 -22.125 30.3125 C-22.764375 29.425625 -23.40375 28.53875 -24.0625 27.625 C-30.22911336 20.71091836 -39.01462934 16.67971291 -48.125 15.3125 C-57.47732663 14.81977357 -66.36324184 14.58272405 -75.125 18.3125 Z " fill="#363542" transform="translate(973.125,280.6875)"/>
<path d="M0 0 C2.48367245 2.17599362 4.81527993 4.4268816 7.1171875 6.79296875 C7.66632813 7.30988281 8.21546875 7.82679688 8.78125 8.359375 C24.87478408 24.84018664 26.43724474 49.47484857 26.453125 71 C26.45956119 73.05498851 26.46629015 75.10997612 26.47329712 77.16496277 C26.48521725 81.45236336 26.48898286 85.73968364 26.48779297 90.02709961 C26.48758886 95.51595498 26.51500909 101.00429795 26.54933739 106.4930315 C26.57157384 110.72841254 26.57563168 114.96366896 26.57457352 119.1991024 C26.57692982 121.22328157 26.58575498 123.24746415 26.60123825 125.27158546 C26.62085344 128.09784784 26.61508019 130.92298678 26.60302734 133.74926758 C26.61426636 134.58003311 26.62550537 135.41079865 26.63708496 136.26673889 C26.5795749 141.57879067 25.62350566 144.57115739 22.1171875 148.79296875 C16.47218168 153.55986255 10.94793751 153.26518369 3.73828125 153.32421875 C-1.82278167 152.50835623 -4.85392162 150.15555397 -8.1953125 145.73046875 C-10.91951601 140.98833671 -11.03335829 137.07542101 -11.04052734 131.74829102 C-11.04560806 130.92832138 -11.05068878 130.10835175 -11.05592346 129.26353455 C-11.0666279 127.48093803 -11.0752478 125.69832806 -11.08204269 123.91571236 C-11.09385131 121.08508993 -11.11331344 118.25461873 -11.13516235 115.42405701 C-11.19668246 107.37496052 -11.25063636 99.32587679 -11.28417969 91.27661133 C-11.30525406 86.35170912 -11.34066687 81.42707855 -11.38493729 76.50233269 C-11.3990063 74.63388225 -11.40779893 72.76538369 -11.41099167 70.89688301 C-11.43929565 55.90669437 -12.11080044 42.03536147 -22.1953125 30.04296875 C-31.89698513 21.92063818 -41.38482756 19.88879723 -53.95703125 20.60205078 C-65.38082295 21.73458185 -77.48213388 29.37444618 -85.140625 37.63671875 C-93.81263303 48.36978699 -97.97201277 60.54163776 -98.04052734 74.26367188 C-98.04560806 74.98642807 -98.05068878 75.70918427 -98.05592346 76.45384216 C-98.06657279 78.01376663 -98.07521399 79.57370586 -98.08204269 81.13365173 C-98.0939016 83.60582272 -98.11336977 86.07782446 -98.13516235 88.54992676 C-98.19655935 95.57538206 -98.25084614 102.60081562 -98.28417969 109.62646484 C-98.30515354 113.93237125 -98.34046997 118.23796085 -98.38493729 122.54368591 C-98.39906637 124.17984791 -98.40781273 125.81606585 -98.41099167 127.45228577 C-98.41591472 129.74261563 -98.43910463 132.03210697 -98.46630859 134.32226562 C-98.47439545 135.62321167 -98.4824823 136.92415771 -98.49081421 138.26452637 C-99.06150224 143.40138508 -100.61559207 146.64937958 -104.4453125 150.10546875 C-110.30031842 154.15893438 -117.96597953 153.61610558 -124.8828125 152.79296875 C-129.53062418 151.25034742 -132.01482003 149.30272832 -134.45111179 145.06511688 C-135.94873225 141.64230933 -136.26172124 139.46416932 -136.27049255 135.75891113 C-136.2853495 133.97995201 -136.2853495 133.97995201 -136.30050659 132.16505432 C-136.29600494 130.87759811 -136.2915033 129.59014191 -136.28686523 128.26367188 C-136.29257235 126.88337146 -136.29953793 125.50307577 -136.30766296 124.12278748 C-136.32557041 120.38518745 -136.3244308 116.64782249 -136.31872058 112.91019249 C-136.31562571 109.78638224 -136.32172437 106.66261695 -136.32775933 103.53881311 C-136.34179453 96.16857809 -136.3402512 88.79845901 -136.32885742 81.42822266 C-136.31737234 73.83115379 -136.33146051 66.23443779 -136.3582539 58.63741541 C-136.38042002 52.10729315 -136.38704638 45.57728159 -136.38117748 39.04712439 C-136.37780944 35.15019114 -136.38021284 31.25348416 -136.39742851 27.35658264 C-136.41291072 23.69236011 -136.40892859 20.02866006 -136.39012337 16.36445808 C-136.38468879 14.38325816 -136.39894118 12.4020347 -136.41381836 10.42088318 C-136.32349217 -0.47223375 -136.32349217 -0.47223375 -131.8828125 -5.20703125 C-125.82649506 -9.87544261 -120.40831367 -11.0725841 -112.8828125 -10.20703125 C-107.27424625 -8.55850699 -102.89905249 -6.39496403 -99.8828125 -1.20703125 C-99.0439527 1.12044103 -98.45148799 3.37609793 -97.8828125 5.79296875 C-97.33496094 5.29667969 -96.78710938 4.80039062 -96.22265625 4.2890625 C-70.59828644 -17.66873081 -27.29709446 -20.89818207 0 0 Z " fill="#363542" transform="translate(1153.8828125,276.20703125)"/>
<path d="M0 0 C10.61085386 21.22170771 7.78722857 61.36943002 2 84 C1.83371094 84.67498535 1.66742187 85.3499707 1.49609375 86.04541016 C-2.65671467 102.32980244 -9.93292576 117.13607516 -22 129 C-22.66 129 -23.32 129 -24 129 C-24 129.66 -24 130.32 -24 131 C-46.99143292 148.47069371 -73.77470796 152.22154028 -101.8125 152.25 C-102.67839752 152.25167175 -103.54429504 152.25334351 -104.43643188 152.25506592 C-136.48244555 152.25877722 -136.48244555 152.25877722 -147 147 C-98.49 98.49 -49.98 49.98 0 0 Z " fill="#5AAD89" transform="translate(1424,43)"/>
<path d="M0 0 C4.77009689 2.71222209 7.38670708 5.85655283 8.9375 11.125 C9.185 12.176875 9.4325 13.22875 9.6875 14.3125 C10.24566406 13.56097656 10.80382812 12.80945313 11.37890625 12.03515625 C18.66240496 3.4453109 30.12663353 -0.93055319 41.12109375 -2.03125 C48.71423586 -2.24192678 55.12509589 -1.78116673 61.0625 3.375 C64.20222502 9.05065676 65.4669641 14.77647223 63.75 21.125 C61.93622029 25.72045084 59.02549056 28.10406844 54.6875 30.3125 C51.70906293 31.30531236 48.99804911 31.58810574 45.88574219 31.85668945 C36.44770475 32.7158974 29.20725693 34.48053217 21.8125 40.75 C14.74412742 49.27362575 11.83509314 58.20914133 10.58959961 69.15332031 C10.50482078 69.89136021 10.42004194 70.6294001 10.33269405 71.38980484 C9.55389499 78.69084175 9.39203506 85.9541035 9.38253975 93.2911911 C9.37878648 95.62122801 9.36183641 97.95087189 9.34178162 100.28082275 C9.28713264 106.88961517 9.25549532 113.49845464 9.23120117 120.10742188 C9.21532382 124.18608838 9.18514127 128.26445379 9.14643669 132.34296417 C9.13482884 133.88506126 9.12885671 135.42721195 9.12875557 136.96935272 C9.12856332 139.11498239 9.11029551 141.25977422 9.08813477 143.40527344 C9.08052879 145.23031403 9.08052879 145.23031403 9.07276917 147.09222412 C8.4990812 151.88740029 6.41540058 155.07241308 2.6875 158.0625 C-2.86376896 162.22595172 -8.60595042 161.91600446 -15.3125 161.3125 C-19.97777224 159.99780975 -22.65881953 158.10026877 -25.75 154.375 C-28.06795312 149.83181188 -28.43738791 145.80086728 -28.44621277 140.74710083 C-28.45047775 139.63967529 -28.45474274 138.53224976 -28.45913696 137.39126587 C-28.45868378 136.18594208 -28.45823059 134.98061829 -28.45776367 133.73876953 C-28.46112228 132.46181213 -28.4644809 131.18485474 -28.46794128 129.86920166 C-28.47675933 126.37326665 -28.47911847 122.87735613 -28.47975707 119.38141108 C-28.4804688 117.19515765 -28.48260545 115.00891042 -28.48525429 112.82265854 C-28.49450032 105.1895483 -28.49859009 97.5564555 -28.49780273 89.92333984 C-28.49720208 82.81776534 -28.50775331 75.71226679 -28.5235464 68.60671151 C-28.53663845 62.49784334 -28.54198593 56.38899995 -28.54134732 50.28011787 C-28.54109283 46.6352667 -28.54391697 42.99048305 -28.55452538 39.3456459 C-28.56603964 35.27871793 -28.56144935 31.21195934 -28.55541992 27.14501953 C-28.56103943 25.9437442 -28.56665894 24.74246887 -28.57244873 23.50479126 C-28.54609877 16.51246768 -28.33147934 10.78514446 -24.75 4.625 C-17.86877374 -1.90334287 -8.71401138 -3.95357924 0 0 Z " fill="#363543" transform="translate(442.3125,267.6875)"/>
<path d="M0 0 C3.96431671 3.43574115 6.74242808 6.32155589 7.25447559 11.64624596 C7.25652846 12.65979967 7.25858133 13.67335339 7.26069641 14.71762085 C7.26778122 15.88401596 7.27486603 17.05041107 7.28216553 18.25215149 C7.27968811 19.52809677 7.27721069 20.80404205 7.2746582 22.11865234 C7.27900648 23.4789508 7.28419002 24.83924681 7.29014587 26.19953918 C7.30353588 29.8917638 7.30411447 33.58388604 7.30158257 37.2761302 C7.30051269 40.36006609 7.30539678 43.44398128 7.310188 46.52791274 C7.32128356 53.80508257 7.32172057 61.0822008 7.31567383 68.359375 C7.30963546 75.86204804 7.32194138 83.36453348 7.3432439 90.86717451 C7.3608697 97.31231835 7.36685965 103.75740255 7.36360615 110.2025696 C7.36179443 114.05031409 7.36441815 117.8979248 7.37832069 121.74564743 C7.39091014 125.36543933 7.3889446 128.9849393 7.37590981 132.60472679 C7.3724222 134.56208942 7.3837143 136.519461 7.39547729 138.47679138 C7.35511093 145.22168323 7.26134029 150.42441598 2.5 155.64453125 C-4.02815702 160.72765352 -9.94035256 160.67640067 -18 160 C-22.91719023 158.65124092 -26.31866172 156.47140289 -29.13424683 152.11950684 C-31.14061728 147.20758041 -30.55015901 141.59707475 -30.51757812 136.37890625 C-30.52300285 134.98875191 -30.53012747 133.59860333 -30.53881836 132.20846558 C-30.55701342 128.44393116 -30.55000027 124.6798365 -30.53730202 120.91529465 C-30.52715442 116.97029206 -30.53657257 113.02532638 -30.54284668 109.08032227 C-30.55011798 102.45614889 -30.54054905 95.83215406 -30.52148438 89.20800781 C-30.4997165 81.55639492 -30.50676824 73.9052084 -30.52879 66.25360584 C-30.54695882 59.67676304 -30.54949511 53.10004839 -30.53903532 46.52318859 C-30.53280849 42.5983246 -30.53194228 38.67366083 -30.54518127 34.74880981 C-30.55676091 31.05830107 -30.54867626 27.36834048 -30.52560425 23.67789078 C-30.51781733 21.68239337 -30.52965504 19.68684944 -30.54211426 17.69137573 C-30.43933783 6.80817795 -30.43933783 6.80817795 -26 2 C-18.7354145 -4.7802798 -8.29318515 -4.62504556 0 0 Z " fill="#363542" transform="translate(1237,269)"/>
<path d="M0 0 C7.26 0 14.52 0 22 0 C24.56666165 6.37082087 27.13123314 12.74239944 29.69042969 19.11621094 C30.56223783 21.28565446 31.43528146 23.4546019 32.30957031 25.62304688 C33.56377707 28.73438972 34.81357506 31.84747138 36.0625 34.9609375 C36.45622803 35.934935 36.84995605 36.9089325 37.25561523 37.91244507 C37.61598877 38.81322784 37.9763623 39.71401062 38.34765625 40.64208984 C38.66742432 41.43706879 38.98719238 42.23204773 39.31665039 43.05111694 C40 45 40 45 40 47 C40.66 47 41.32 47 42 47 C42.33644531 45.74445313 42.67289063 44.48890625 43.01953125 43.1953125 C45.61839771 34.5324243 49.25501524 26.23207726 52.6875 17.875 C53.39690677 16.1381933 54.10589477 14.40121549 54.81445312 12.6640625 C56.53737676 8.44038071 58.26884643 4.22035225 60 0 C67.26 0 74.52 0 82 0 C82 23.76 82 47.52 82 72 C75.73 72 69.46 72 63 72 C62.505 54.675 62.505 54.675 62 37 C57.71 48.55 53.42 60.1 49 72 C43.72 72 38.44 72 33 72 C31.1663148 67.213036 29.33302062 62.42592609 27.50073242 57.63842773 C26.87726626 56.00975827 26.25356984 54.38117693 25.62963867 52.75268555 C24.73295536 50.41217804 23.83710011 48.07135506 22.94140625 45.73046875 C22.6622084 45.00224411 22.38301056 44.27401947 22.09535217 43.52372742 C21.01397947 40.69564263 19.95760897 37.8728269 19 35 C18.67 47.21 18.34 59.42 18 72 C12.06 72 6.12 72 0 72 C0 48.24 0 24.48 0 0 Z " fill="#0096B2" transform="translate(654,466)"/>
<path d="M0 0 C6.93 0 13.86 0 21 0 C25.49971655 8.99943311 25.49971655 8.99943311 26.81518555 12.27294922 C27.11196701 13.00665741 27.40874847 13.7403656 27.71452332 14.49630737 C28.17101006 15.63895554 28.17101006 15.63895554 28.63671875 16.8046875 C28.96162796 17.60987823 29.28653717 18.41506897 29.62129211 19.24465942 C30.64648088 21.78686332 31.66718021 24.33083852 32.6875 26.875 C33.71940637 29.44022357 34.7522438 32.00506863 35.7858429 34.5696106 C36.42584414 36.15839081 37.06470855 37.74762954 37.70231628 39.33737183 C39.24726773 43.21459761 39.24726773 43.21459761 41 47 C41.22328476 46.4406778 41.44656952 45.88135559 41.67662048 45.30508423 C43.99520992 39.4975715 46.31500066 33.69053969 48.63549805 27.88378906 C49.50201921 25.71496767 50.36823123 23.54602274 51.23413086 21.37695312 C52.4768937 18.26399937 53.72075798 15.15148774 54.96484375 12.0390625 C55.35341049 11.065065 55.74197723 10.0910675 56.14231873 9.08755493 C56.50261673 8.18677216 56.86291473 7.28598938 57.23413086 6.35791016 C57.55167831 5.56293121 57.86922577 4.76795227 58.19639587 3.94888306 C59 2 59 2 60 0 C67.26 0 74.52 0 82 0 C82 23.76 82 47.52 82 72 C75.73 72 69.46 72 63 72 C62.505 54.675 62.505 54.675 62 37 C57.71 48.55 53.42 60.1 49 72 C43.72 72 38.44 72 33 72 C27.90217939 60.15990053 23.49651325 48.08018486 19 36 C18.67 47.88 18.34 59.76 18 72 C12.06 72 6.12 72 0 72 C0 48.24 0 24.48 0 0 Z " fill="#0097B1" transform="translate(1106,466)"/>
<path d="M0 0 C5.878125 -0.0825 11.75625 -0.165 17.8125 -0.25 C20.55977417 -0.30462402 20.55977417 -0.30462402 23.36254883 -0.36035156 C42.47279789 -0.5831449 42.47279789 -0.5831449 49.94824219 5.61547852 C54.50380634 10.23053163 56.91225949 16.12771866 57.05859375 22.5859375 C56.59962491 29.08962358 54.99170306 33.68531807 50.6875 38.6875 C47.92633958 41.06338222 45.26974007 42.43503475 42 44 C43.18675662 46.08375968 44.37438648 48.16701409 45.5625 50.25 C45.92021484 50.8780957 46.27792969 51.50619141 46.64648438 52.15332031 C48.43838142 55.29309053 50.2427001 58.42360918 52.08984375 61.53125 C52.72019531 62.5934375 53.35054687 63.655625 54 64.75 C54.5775 65.71421875 55.155 66.6784375 55.75 67.671875 C57 70 57 70 57 72 C50.07 72 43.14 72 36 72 C34.00222209 68.47840679 32.00709084 64.95551218 30.01855469 61.42871094 C29.34105082 60.22895097 28.66202019 59.03005184 27.98144531 57.83203125 C27.0044672 56.11163831 26.03339468 54.38789591 25.0625 52.6640625 C24.47597656 51.62717285 23.88945313 50.5902832 23.28515625 49.52197266 C22 47 22 47 22 45 C21.01 45 20.02 45 19 45 C19 53.91 19 62.82 19 72 C12.73 72 6.46 72 0 72 C0 48.24 0 24.48 0 0 Z M19 15 C19 20.61 19 26.22 19 32 C21.2275 32.061875 23.455 32.12375 25.75 32.1875 C27.00296875 32.22230469 28.2559375 32.25710938 29.546875 32.29296875 C33.18215906 31.98454533 34.54223685 31.64269193 37 29 C38.0642101 26.35056027 38.24334978 23.83723722 38 21 C35.92602432 17.51868367 34.85541154 16.28513718 31 15 C26.99616868 14.86600297 23.0072645 14.95691113 19 15 Z " fill="#0096B2" transform="translate(826,466)"/>
<path d="M0 0 C6.27 0 12.54 0 19 0 C19.33 9.24 19.66 18.48 20 28 C22.35125 24.865 24.7025 21.73 27.125 18.5 C31.1328125 13.15625 31.1328125 13.15625 33.14306641 10.53320312 C35.01119715 8.07240684 35.01119715 8.07240684 36.43115234 5.57617188 C38.44178599 2.2980755 39.68355529 0.32256075 43.52685547 -0.61914062 C46.51863957 -0.78803577 49.38574149 -0.7005696 52.375 -0.5 C53.39722656 -0.46390625 54.41945313 -0.4278125 55.47265625 -0.390625 C57.98566323 -0.29668081 60.49086139 -0.16553566 63 0 C61.18567935 3.81176134 58.81344288 6.96583435 56.1875 10.25 C55.7133667 10.84828613 55.2392334 11.44657227 54.75073242 12.06298828 C48.89781087 19.42673843 42.9507645 26.71528035 37 34 C38.53669327 38.81012273 41.27041148 42.11338258 44.4375 45.9375 C45.51741985 47.26522436 46.5968346 48.59335967 47.67578125 49.921875 C48.22572754 50.59541016 48.77567383 51.26894531 49.34228516 51.96289062 C51.963096 55.18351591 54.54902597 58.43096535 57.125 61.6875 C57.58575928 62.26298584 58.04651855 62.83847168 58.52124023 63.43139648 C60.7002509 66.18699933 62.49464616 68.83314057 64 72 C44.72805784 74.03610792 44.72805784 74.03610792 39.10644531 70.96582031 C36.02051129 68.17436906 34.06788318 64.61292958 32.13183594 60.98632812 C30.49601745 58.11553019 28.53092002 55.53061123 26.54150391 52.89746094 C24.32514812 49.95833809 22.16843779 46.97465184 20 44 C19.67 53.24 19.34 62.48 19 72 C12.73 72 6.46 72 0 72 C0 48.24 0 24.48 0 0 Z " fill="#0097B2" transform="translate(1195,466)"/>
<path d="M0 0 C6.93 0 13.86 0 21 0 C25.49990717 10.12479114 25.49990717 10.12479114 27.04296875 14.43701172 C27.39012939 15.40186493 27.73729004 16.36671814 28.0949707 17.36080933 C28.45550537 18.37353912 28.81604004 19.38626892 29.1875 20.4296875 C29.76407349 22.03615646 29.76407349 22.03615646 30.35229492 23.67507935 C31.57139269 27.07391774 32.78581223 30.47440489 34 33.875 C34.81478587 36.14985361 35.62988724 38.42459425 36.4453125 40.69921875 C37.59967597 43.91951195 38.75361689 47.13994801 39.9050293 50.36129761 C40.25218994 51.33245514 40.59935059 52.30361267 40.95703125 53.30419922 C41.2917041 54.24181091 41.62637695 55.17942261 41.97119141 56.14544678 C42.68813763 58.13470034 43.41516062 60.12033871 44.14990234 62.10308838 C44.51680176 63.09403503 44.88370117 64.08498169 45.26171875 65.10595703 C45.76191528 66.44426071 45.76191528 66.44426071 46.2722168 67.80960083 C47 70 47 70 47 72 C40.4 72 33.8 72 27 72 C24 63 24 63 24 60 C15.09 60 6.18 60 -3 60 C-3.66 62.97 -4.32 65.94 -5 69 C-5.33 69.99 -5.66 70.98 -6 72 C-12.6 72 -19.2 72 -26 72 C-21.22297838 57.41919808 -16.15530373 42.98187832 -10.83642578 28.59057617 C-9.60231305 25.2511099 -8.37307685 21.9098773 -7.14453125 18.56835938 C-6.35964922 16.43739898 -5.57450343 14.30653571 -4.7890625 12.17578125 C-4.23915146 10.68235954 -4.23915146 10.68235954 -3.6781311 9.1587677 C-3.34042694 8.24568344 -3.00272278 7.33259918 -2.65478516 6.3918457 C-2.35835114 5.58914749 -2.06191711 4.78644928 -1.75650024 3.95942688 C-1 2 -1 2 0 0 Z M10 22 C8.82847622 25.45670732 7.66360923 28.91562122 6.5 32.375 C5.99919922 33.85226562 5.99919922 33.85226562 5.48828125 35.359375 C5.17246094 36.30039062 4.85664062 37.24140625 4.53125 38.2109375 C4.23798828 39.08024902 3.94472656 39.94956055 3.64257812 40.84521484 C2.90474212 42.94467299 2.90474212 42.94467299 3 45 C7.95 45 12.9 45 18 45 C16.48526781 37.01323028 13.83197448 29.59877122 11 22 C10.67 22 10.34 22 10 22 Z " fill="#0097B1" transform="translate(910,466)"/>
<path d="M0 0 C6.27 0 12.54 0 19 0 C19.0093457 1.45817139 19.01869141 2.91634277 19.02832031 4.41870117 C19.06821648 9.83291075 19.1339752 15.2465519 19.20751953 20.66040039 C19.23573113 23.00277398 19.25694468 25.34524281 19.27099609 27.68774414 C19.29242224 31.05664839 19.33907316 34.42440737 19.390625 37.79296875 C19.39185364 38.83897751 19.39308228 39.88498627 19.39434814 40.96269226 C19.48426921 45.43461187 19.54640467 48.23086269 21.85058594 52.13793945 C25.36018578 55.17834358 28.52796939 55.24045672 33.0703125 55.140625 C35.65277187 54.95242958 37.00358674 54.70064834 39 53 C42.19910602 47.06688685 42.46782663 41.9172414 42.51171875 35.25390625 C42.52966995 34.24279282 42.54762115 33.23167938 42.56611633 32.18992615 C42.62002042 28.9808257 42.65405149 25.77187231 42.6875 22.5625 C42.7206906 20.37823484 42.75518186 18.19398902 42.79101562 16.00976562 C42.87573564 10.67328351 42.94264185 5.33684351 43 0 C48.94 0 54.88 0 61 0 C61.09936358 7.08003716 61.17170315 14.15966248 61.21972656 21.24023438 C61.23976034 23.64557981 61.26699522 26.05087703 61.30175781 28.45605469 C61.35063808 31.92655378 61.37305205 35.39640526 61.390625 38.8671875 C61.41127014 39.93113739 61.43191528 40.99508728 61.45318604 42.09127808 C61.45577906 50.848177 59.76016219 58.27064378 53.75 64.875 C45.79122554 72.13203306 37.39124033 73.48710957 26.90234375 73.2734375 C18.69953457 72.69866609 11.98460876 70.18607451 6.43359375 63.99609375 C1.89319996 57.67418306 -0.13394828 50.76639802 -0.11352539 43.02612305 C-0.11344986 42.06550461 -0.11337433 41.10488617 -0.11329651 40.11515808 C-0.10813522 39.0910231 -0.10297394 38.06688812 -0.09765625 37.01171875 C-0.0962413 35.95338333 -0.09482635 34.89504791 -0.09336853 33.80464172 C-0.08778159 30.43223211 -0.07523144 27.05988946 -0.0625 23.6875 C-0.05748331 21.39778742 -0.0529207 19.10807379 -0.04882812 16.81835938 C-0.03781643 11.21221388 -0.02056072 5.60611828 0 0 Z " fill="#0096B1" transform="translate(1037,466)"/>
<path d="M0 0 C40.45714286 0 40.45714286 0 48.3125 5.1875 C53.65083629 10.774131 55.25018292 15.2140344 55.5 23 C55.2390994 30.87751483 53.52624362 35.82157535 47.875 41.3125 C38.96499034 48.19665484 28.67761847 47.27146488 18 47 C18 55.25 18 63.5 18 72 C12.06 72 6.12 72 0 72 C0 48.24 0 24.48 0 0 Z M18 15 C18 20.61 18 26.22 18 32 C21.0628125 32.12375 21.0628125 32.12375 24.1875 32.25 C25.91033203 32.31960938 25.91033203 32.31960938 27.66796875 32.390625 C31.6559328 31.92310284 33.20952591 30.83128541 36 28 C37.23674251 24.36706886 37.34458203 22.75808047 35.75 19.25 C34.02635231 16.78918149 34.02635231 16.78918149 31 15 C27.79620876 14.75753217 27.79620876 14.75753217 24.3125 14.875 C22.229375 14.91625 20.14625 14.9575 18 15 Z " fill="#0096B1" transform="translate(978,466)"/>
<path d="M0 0 C18.48 0 36.96 0 56 0 C56 4.95 56 9.9 56 15 C49.73 15 43.46 15 37 15 C37 33.81 37 52.62 37 72 C31.06 72 25.12 72 19 72 C19 53.19 19 34.38 19 15 C12.73 15 6.46 15 0 15 C0 10.05 0 5.1 0 0 Z " fill="#0096B1" transform="translate(766,466)"/>
<path d="M0 0 C7.85249475 1.93193253 15.19239673 4.51633697 22.625 7.6875 C24.18226807 8.34516357 24.18226807 8.34516357 25.77099609 9.01611328 C32.09889788 11.70827689 38.39083207 14.47211493 44.625 17.375 C45.62587646 17.83845825 45.62587646 17.83845825 46.64697266 18.3112793 C50.70232301 20.23953298 54.3309321 22.43729719 58 25 C56.63358421 28.59747227 55.0328614 31.92958192 53.1796875 35.30078125 C52.64472656 36.27724609 52.10976562 37.25371094 51.55859375 38.25976562 C51.00300781 39.26716797 50.44742187 40.27457031 49.875 41.3125 C49.31167969 42.33923828 48.74835938 43.36597656 48.16796875 44.42382812 C46.78117107 46.95062051 45.39177165 49.47594494 44 52 C42.906875 51.46632812 41.81375 50.93265625 40.6875 50.3828125 C30.15051484 45.29105295 19.49584103 40.61014579 8.66015625 36.18798828 C7.67660156 35.78563965 6.69304687 35.38329102 5.6796875 34.96875 C4.80038574 34.61232422 3.92108398 34.25589844 3.01513672 33.88867188 C1 33 1 33 0 32 C-0.0883967 29.6243148 -0.11530305 27.27791326 -0.09765625 24.90234375 C-0.0962413 24.19348526 -0.09482635 23.48462677 -0.09336853 22.75428772 C-0.08775443 20.48198288 -0.07519963 18.20977525 -0.0625 15.9375 C-0.05748681 14.40039204 -0.05292359 12.86328255 -0.04882812 11.32617188 C-0.03778042 7.55074358 -0.02050641 3.77538829 0 0 Z " fill="#DADADA" transform="translate(1207,12)"/>
<path d="M0 0 C10.91835397 16.37753096 16.17135296 39.85676478 20 59 C9.44 59 -1.12 59 -12 59 C-13.175625 55.266875 -14.35125 51.53375 -15.5625 47.6875 C-18.42837007 38.6233528 -21.46336928 29.66544752 -25.00415039 20.84057617 C-27.02088406 15.64610065 -27.02088406 15.64610065 -26.93359375 12.94555664 C-25.47593475 9.90787762 -23.28044201 9.44713589 -20.21484375 8.203125 C-19.04501953 7.71972656 -17.87519531 7.23632812 -16.66992188 6.73828125 C-15.42591296 6.24185731 -14.18177053 5.74576783 -12.9375 5.25 C-11.68888082 4.73967929 -10.44082553 4.22797656 -9.19335938 3.71484375 C-6.13419265 2.46282957 -3.06993518 1.22531858 0 0 Z " fill="#DADADA" transform="translate(1422,210)"/>
<path d="M0 0 C5.94 0 11.88 0 18 0 C18 23.76 18 47.52 18 72 C12.06 72 6.12 72 0 72 C0 48.24 0 24.48 0 0 Z " fill="#0096B1" transform="translate(744,466)"/>
<path d="M0 0 C5.51624306 5.65414914 5.34764635 11.02059979 5.27734375 18.60546875 C4.93010268 22.85550381 4.01958537 24.98041463 1 28 C-5.62429957 33.00202212 -10.90522192 33.6082142 -19 33 C-23.18871659 32.11925992 -26.26159287 30.71897537 -29.375 27.6875 C-33.250143 21.27860965 -33.92387836 15.10419926 -32.60546875 7.8203125 C-31.10528415 2.69064903 -28.61969871 0.51601372 -24.03515625 -2.08984375 C-15.86587318 -5.74328512 -7.50605147 -4.66307807 0 0 Z " fill="#363542" transform="translate(1239,226)"/>
</svg>
