<?xml version="1.0" encoding="UTF-8"?>
<svg version="1.1" xmlns="http://www.w3.org/2000/svg" width="1453" height="566">
<path d="M0 0 C4.49477913 3.62926368 7.81698976 7.83167146 11.09765625 12.56640625 C12.02578125 11.76203125 12.95390625 10.95765625 13.91015625 10.12890625 C14.55726563 9.58105469 15.204375 9.03320312 15.87109375 8.46875 C17.41571598 7.14904644 18.94062451 5.80605448 20.44921875 4.4453125 C39.61048047 -12.25566637 63.20755877 -17.01996635 88.09765625 -15.43359375 C106.52505115 -13.21084891 121.97676859 -3.7914981 133.47265625 10.50390625 C146.95457247 30.05268478 148.41974327 52.66362897 148.3984375 75.6015625 C148.40233702 77.37796628 148.40667421 79.15436916 148.41142273 80.93077087 C148.4188136 84.61916153 148.41864269 88.30745629 148.41333008 91.99584961 C148.40749321 96.70978885 148.4246018 101.42334053 148.44767475 106.13721561 C148.46242121 109.79101328 148.46328343 113.4447172 148.46016502 117.09853935 C148.46067608 118.83719091 148.46587306 120.57584801 148.47597694 122.31447029 C148.48836537 124.73993395 148.48153978 127.16463573 148.4699707 129.59008789 C148.47761444 130.29719406 148.48525818 131.00430023 148.49313354 131.73283386 C148.43515185 137.25503855 147.28758415 142.08114457 143.5625 146.30859375 C136.63274023 151.44831327 130.48519555 151.19194752 122.09765625 150.56640625 C117.80936942 149.34814295 115.52902208 147.09993767 112.72265625 143.62890625 C109.91753609 138.34233364 109.94803427 133.27162507 109.93994141 127.38647461 C109.93486069 126.57596649 109.92977997 125.76545837 109.92454529 124.9303894 C109.9138691 123.1745657 109.9052382 121.41872862 109.89842606 119.66288567 C109.88658225 116.87410912 109.86711286 114.08548365 109.8453064 111.29676819 C109.78389333 103.36887727 109.72980297 95.44100135 109.69628906 87.51293945 C109.67521405 82.65705198 109.63980598 77.80144002 109.59553146 72.94571114 C109.58146893 71.10517201 109.57267132 69.26458414 109.56947708 67.42399406 C109.54130925 52.74026939 108.94961668 39.36584723 99.09765625 27.56640625 C96.29709696 25.06225652 93.45105857 23.2459638 90.09765625 21.56640625 C89.43378906 21.22867188 88.76992188 20.8909375 88.0859375 20.54296875 C79.44559453 16.95516919 67.98250018 17.21753878 59.22265625 20.19140625 C43.6658823 26.87522979 34.97942527 36.24617106 27.91625977 51.33227539 C25.69731562 57.38821274 24.8474126 62.89997291 24.82641602 69.34008789 C24.82118927 70.07128342 24.81596252 70.80247894 24.81057739 71.55583191 C24.80041159 73.12825971 24.79457009 74.70072046 24.792696 76.27318001 C24.78900281 78.76686632 24.77219831 81.26016532 24.75193787 83.75376892 C24.69679411 90.83813264 24.66582958 97.92255084 24.64135742 105.00708008 C24.62544278 109.35417557 24.59519158 113.70099114 24.55659294 118.04794121 C24.54498655 119.69723977 24.53901297 121.34658842 24.53891182 122.99592781 C24.53871875 125.30495444 24.52038185 127.61321255 24.49829102 129.92211914 C24.49322037 131.23257706 24.48814972 132.54303497 24.48292542 133.89320374 C23.98740361 138.61756814 22.7737749 142.66424615 19.5625 146.30859375 C12.63274023 151.44831327 6.48519555 151.19194752 -1.90234375 150.56640625 C-6.19063058 149.34814295 -8.47097792 147.09993767 -11.27734375 143.62890625 C-14.08493518 138.33767625 -14.05197545 133.2608717 -14.06005859 127.37060547 C-14.06513931 126.55849106 -14.07022003 125.74637665 -14.07545471 124.90965271 C-14.08613051 123.15055279 -14.09476156 121.39143953 -14.10157394 119.6323204 C-14.1134147 116.83961792 -14.13288271 114.04706649 -14.1546936 111.25442505 C-14.21612146 103.31550189 -14.2702263 95.37659416 -14.30371094 87.4375 C-14.32476667 82.57513298 -14.36015848 77.71304212 -14.40446854 72.85083389 C-14.41854468 71.0066772 -14.42733183 69.16247166 -14.43052292 67.31826401 C-14.45801529 52.94598883 -15.05856553 37.41018447 -25.90234375 26.56640625 C-36.40452257 19.19097069 -46.25927585 17.57553089 -58.90234375 18.56640625 C-62.58808906 19.40270987 -65.61033236 20.72963831 -68.90234375 22.56640625 C-70.25585938 23.29537109 -70.25585938 23.29537109 -71.63671875 24.0390625 C-83.72472363 31.10152944 -92.53536677 41.96906133 -96.46670532 55.51031494 C-98.19200077 63.07965603 -98.19793765 70.61220751 -98.207304 78.33000946 C-98.21100916 80.78577663 -98.22784306 83.24115471 -98.24806213 85.69683838 C-98.30310864 92.67102835 -98.33422132 99.64527122 -98.35864258 106.61962891 C-98.37454039 110.90418948 -98.40476686 115.18846491 -98.44340706 119.4728775 C-98.45502066 121.09788229 -98.46098709 122.72293803 -98.46108818 124.34798431 C-98.46128086 126.61868577 -98.4795872 128.88860084 -98.50170898 131.15917969 C-98.50931496 133.09250153 -98.50931496 133.09250153 -98.51707458 135.06488037 C-99.00610478 139.50944028 -100.3743536 142.89118789 -103.40234375 146.2109375 C-109.94098259 151.30222139 -115.83768332 151.14729416 -123.90234375 150.56640625 C-126.5547975 149.8269864 -128.48413151 148.9161061 -130.90234375 147.56640625 C-130.90234375 146.90640625 -130.90234375 146.24640625 -130.90234375 145.56640625 C-131.56234375 145.56640625 -132.22234375 145.56640625 -132.90234375 145.56640625 C-136.97780645 139.58498187 -136.324118 133.23872623 -136.29052734 126.22070312 C-136.29459604 124.86010823 -136.2999396 123.49951664 -136.30645752 122.13893127 C-136.32010159 118.45503405 -136.31484463 114.77138966 -136.30532026 111.08748817 C-136.29770853 107.22657226 -136.30477348 103.36567754 -136.30947876 99.50476074 C-136.31493191 93.02185187 -136.3077563 86.53904563 -136.29345703 80.05615234 C-136.27713131 72.56819607 -136.28242013 65.08048488 -136.29893625 57.59253454 C-136.3125637 51.15583373 -136.31446463 44.71920656 -136.30662024 38.28249598 C-136.30195063 34.44149924 -136.3012992 30.60061758 -136.31122971 26.7596283 C-136.3199155 23.14800011 -136.31384837 19.53668696 -136.29654694 15.9250927 C-136.29070803 13.97253219 -136.29958389 12.01994494 -136.30892944 10.06739807 C-136.23078036 -0.73322398 -136.23078036 -0.73322398 -132.90234375 -5.43359375 C-128.12073659 -10.00730495 -124.25030156 -12.45411075 -117.65234375 -12.80859375 C-112.49961765 -12.67095833 -108.21927726 -11.25086963 -103.90234375 -8.43359375 C-101.0382607 -4.98200649 -99.51933505 -1.57057149 -97.90234375 2.56640625 C-96.84660156 1.69628906 -96.84660156 1.69628906 -95.76953125 0.80859375 C-67.60332269 -21.47433365 -28.50008339 -21.47747557 0 0 Z " fill="#363542" transform="translate(648.90234375,276.43359375)"/>
<path d="M0 0 C42.60158326 -0.84503825 42.60158326 -0.84503825 53.05078125 6.12109375 C53.65087891 7.90185547 53.65087891 7.90185547 53.96484375 10.05078125 C54.08601563 10.84742188 54.2071875 11.6440625 54.33203125 12.46484375 C54.44546875 13.30015625 54.55890625 14.13546875 54.67578125 14.99609375 C54.79695313 15.79273438 54.918125 16.589375 55.04296875 17.41015625 C59.2592077 46.19056992 59.09311437 76.58362684 49.05078125 104.12109375 C48.59058594 105.4978125 48.59058594 105.4978125 48.12109375 106.90234375 C41.916455 124.25336892 28.4990334 138.00894169 12.18359375 146.1015625 C-21.1735154 161.77252267 -60.60441301 160.71668238 -95.94921875 153.12109375 C-96.43273225 150.64270693 -96.91109076 148.16349597 -97.38671875 145.68359375 C-97.52142578 144.99587891 -97.65613281 144.30816406 -97.79492188 143.59960938 C-99.36065562 135.38905437 -100.10743562 127.29740404 -100.15234375 118.94140625 C-100.15804382 118.08916473 -100.1637439 117.23692322 -100.1696167 116.3588562 C-100.1790036 114.56216649 -100.18557533 112.76546005 -100.18945312 110.96875 C-100.19907047 108.28743391 -100.23011791 105.60691535 -100.26171875 102.92578125 C-100.35393785 88.03513941 -99.29983982 72.87197069 -94.19921875 58.74609375 C-93.81515869 57.64587891 -93.81515869 57.64587891 -93.42333984 56.5234375 C-86.16038292 36.45508635 -72.98481922 20.55771725 -53.78466797 10.98046875 C-37.22975938 3.22930112 -18.09046705 0.55470275 0 0 Z " fill="#62BB93" transform="translate(1367.94921875,34.87890625)"/>
<path d="M0 0 C4.58009183 4.34521532 5.83191213 9.44829986 6.24050903 15.65110779 C6.2338472 17.59969444 6.2338472 17.59969444 6.22705078 19.58764648 C6.22729185 20.32199197 6.22753292 21.05633745 6.2277813 21.81293583 C6.22630076 24.16578287 6.21112665 26.51830417 6.1953125 28.87109375 C6.19236814 30.33337247 6.19033012 31.79565331 6.18920898 33.25793457 C6.17876712 38.65115541 6.15084458 44.04433098 6.125 49.4375 C6.08375 61.503125 6.0425 73.56875 6 86 C37.02 86 68.04 86 100 86 C99.88136647 61.30348998 99.88136647 61.30348998 99.72973633 36.60717773 C99.71618652 31.8145752 99.71618652 31.8145752 99.71366882 29.5660553 C99.70908281 28.00633675 99.6985747 26.44662838 99.68327332 24.88697815 C99.6611784 22.51487954 99.65828643 20.14342697 99.65942383 17.77124023 C99.6486295 17.08443145 99.63783518 16.39762266 99.62671375 15.69000149 C99.66760274 9.28054379 101.23722474 4.76277526 105.8125 0.1875 C111.28173328 -3.56589539 116.39201896 -4.79345363 123 -4 C129.24883829 -2.52153179 133.5287752 0.22276235 137.1160984 5.70594311 C138.3646133 8.94630858 138.25857911 11.79765652 138.26742554 15.26741028 C138.27195665 16.00092844 138.27648776 16.73444661 138.28115618 17.49019259 C138.29382015 19.94901073 138.29217854 22.40760793 138.29052734 24.86645508 C138.29651139 26.62906683 138.30331665 28.39167595 138.31088257 30.15428162 C138.32856338 34.94363221 138.33323885 39.73291135 138.33451414 44.52229142 C138.33641296 48.52073316 138.34377039 52.51915824 138.35085833 56.51759356 C138.36714816 65.95224869 138.37202678 75.38686563 138.37060547 84.8215332 C138.36940419 94.55204783 138.39050198 104.2823406 138.4220928 114.01279908 C138.44825129 122.36791998 138.45897293 130.72296841 138.45769465 139.07812995 C138.45718485 144.06779411 138.46287806 149.05726118 138.48405075 154.04688454 C138.50342565 158.74110019 138.50356272 163.43493062 138.48901749 168.12915993 C138.48692729 169.85005252 138.49164288 171.57096917 138.5037384 173.29182053 C138.51920793 175.64554441 138.50987273 177.99794283 138.49447632 180.35163879 C138.49556585 181.66737287 138.49665539 182.98310694 138.49777794 184.33871174 C137.80979069 189.39903972 135.86149376 192.99293919 132.3515625 196.77734375 C126.04858239 201.01260414 119.36991503 201.07245562 112 200 C107.62533484 198.37360703 104.90309826 196.16528808 102.0625 192.5 C100.04646648 187.75639172 99.87698055 183.30748366 99.88647461 178.19018555 C99.88635407 177.51555425 99.88623354 176.84092295 99.88610935 176.14584827 C99.88685188 173.97610413 99.89444985 171.80644739 99.90234375 169.63671875 C99.90381522 168.29154502 99.90483467 166.94637071 99.90539551 165.60119629 C99.91062467 160.62995542 99.92458594 155.65872684 99.9375 150.6875 C99.958125 139.570625 99.97875 128.45375 100 117 C68.98 117 37.96 117 6 117 C6.11851792 138.64452289 6.11851792 138.64452289 6.27026367 160.28881836 C6.27903037 163.01415656 6.28667388 165.73949871 6.29296875 168.46484375 C6.30080887 169.16194962 6.30864899 169.85905548 6.31672668 170.57728577 C6.51086871 188.7689531 6.51086871 188.7689531 0.5625 195.9375 C-5.57143989 200.87457357 -11.31208518 200.71729349 -19 200 C-23.54598601 198.85626467 -26.8603678 196.68614254 -29.67930603 192.92628479 C-33.62763791 186.27401999 -32.68649795 178.16173581 -32.63110352 170.67944336 C-32.63624637 168.91623719 -32.64353041 167.15303617 -32.65278625 165.3898468 C-32.67126046 160.61708082 -32.65838741 155.8448753 -32.63869596 151.07213283 C-32.62227781 146.07058894 -32.63112664 141.06907966 -32.63621521 136.06752014 C-32.64073221 127.6704923 -32.62488969 119.2736875 -32.59692383 110.87670898 C-32.56486332 101.17561702 -32.56489302 91.47492705 -32.5821386 81.77380651 C-32.59801384 72.4309511 -32.59126436 63.08824275 -32.57420158 53.74539375 C-32.56733811 49.7738407 -32.56835629 45.80240577 -32.57574654 41.83085442 C-32.58341968 37.15294707 -32.57124966 32.47549612 -32.54389763 27.79766655 C-32.53702391 26.0832403 -32.53690496 24.36877134 -32.54411316 22.65434647 C-32.55283424 20.30954029 -32.53680898 17.96613414 -32.5146637 15.6214447 C-32.51185678 14.3109059 -32.50904985 13.00036711 -32.50615788 11.65011501 C-31.71622792 5.95360146 -29.58095385 2.25158846 -25 -1.375 C-16.68563728 -5.87861314 -7.93658936 -4.87669949 0 0 Z " fill="#363543" transform="translate(55,227)"/>
<path d="M0 0 C0.391875 -0.7425 0.78375 -1.485 1.1875 -2.25 C4.44900668 -7.19849289 8.25247082 -9.67364711 14 -11 C20.33382909 -11.91353304 24.9950114 -10.53854544 30.73828125 -7.875 C34.84698776 -4.46881844 36.71100393 -0.28734525 37.36869621 4.91815567 C37.51281841 8.44484597 37.52895976 11.9513849 37.50170898 15.48095703 C37.50549782 16.83199627 37.5110025 18.18303161 37.51808167 19.53405762 C37.5319776 23.18279778 37.52090953 26.83106333 37.50437045 30.47977686 C37.49046401 34.30731178 37.49698616 38.13482072 37.50050354 41.96237183 C37.50320061 48.38628745 37.48977132 54.81001569 37.46655273 61.23388672 C37.43992341 68.65259427 37.43820492 76.07098909 37.4499411 83.48972809 C37.46073134 90.64023521 37.45452352 97.7906296 37.44038582 104.94112778 C37.43463908 107.97848054 37.43469827 111.01575046 37.43945122 114.0531044 C37.44423437 117.63030555 37.43406448 121.20716547 37.41249657 124.78430176 C37.40430723 126.7177467 37.41076583 128.65123641 37.41769409 130.58468628 C37.36045657 137.27568588 37.25812553 142.50974339 32.46484375 147.64453125 C25.57693294 152.91175717 19.41893804 152.64489242 11 152 C6.50930599 150.61327369 3.45798298 148.01039328 1 144 C0.34 143.01 -0.32 142.02 -1 141 C-1.54785156 141.36351562 -2.09570312 141.72703125 -2.66015625 142.1015625 C-23.06780508 155.04299834 -46.08944183 159.04051411 -69.77734375 154.109375 C-79.87031457 151.68315774 -89.09029293 146.66483792 -97 140 C-98.09248047 139.23429687 -98.09248047 139.23429687 -99.20703125 138.453125 C-99.79871094 137.97359375 -100.39039063 137.4940625 -101 137 C-101 136.34 -101 135.68 -101 135 C-101.56847656 134.80277344 -102.13695312 134.60554687 -102.72265625 134.40234375 C-105.90617849 132.44199301 -107.51417717 129.67558778 -109.4375 126.5625 C-109.83219482 125.93069824 -110.22688965 125.29889648 -110.63354492 124.64794922 C-124.55752033 101.96742314 -128.31490576 71.78663175 -122.3125 45.875 C-117.24359265 25.96987819 -106.17248067 8.01605254 -88.55126953 -2.97338867 C-59.82459237 -19.78188221 -27.99283939 -16.61191226 0 0 Z M-76.3125 34.6875 C-86.58701001 48.3453335 -89.02792722 65.65326374 -86.67919922 82.26953125 C-84.16017407 95.85941175 -78.96506307 107.63321661 -68.09375 116.56640625 C-57.71243236 123.69292553 -46.27421578 123.90566884 -34.3125 121.9375 C-20.87116401 119.41448996 -9.31967476 113.14720238 -1.41763306 101.70965576 C0.16412211 98.68629793 0.40045712 96.82381869 0.45166016 93.43457031 C0.4740274 92.34283508 0.49639465 91.25109985 0.5194397 90.12628174 C0.52591522 88.95539001 0.53239075 87.78449829 0.5390625 86.578125 C0.55141937 85.36356628 0.56377625 84.14900757 0.57650757 82.89764404 C0.5960645 80.32894707 0.60730425 77.76017524 0.61083984 75.19140625 C0.6249017 71.27736056 0.69222383 67.36652711 0.76171875 63.453125 C0.77412071 60.95313915 0.78333848 58.45313506 0.7890625 55.953125 C0.81578033 54.7903302 0.84249817 53.6275354 0.87002563 52.42950439 C0.80181807 44.20122649 -1.25136737 39.84251567 -7 34 C-7.74765625 33.19046875 -8.4953125 32.3809375 -9.265625 31.546875 C-19.68692405 22.11026562 -31.69798537 18.41568349 -45.59765625 18.69140625 C-58.12814821 19.82792619 -68.15717311 25.208454 -76.3125 34.6875 Z " fill="#363542" transform="translate(342,275)"/>
<path d="M0 0 C0.73734375 0.49113281 1.4746875 0.98226563 2.234375 1.48828125 C3.86762298 2.59562338 5.44241273 3.78854324 7 5 C7 5.66 7 6.32 7 7 C7.58265625 7.24363281 8.1653125 7.48726563 8.765625 7.73828125 C18.69024654 13.34256929 25.38183542 28.32750635 28.578125 38.94140625 C35.50365998 63.89774989 35.37398779 90.16557646 23.25 113.625 C20.04358863 119.22413543 16.2463391 124.15398706 12 129 C11.40703125 129.68835938 10.8140625 130.37671875 10.203125 131.0859375 C-4.59063285 147.08089791 -26.73061845 153.94640834 -48 155 C-48.68835938 155.04125 -49.37671875 155.0825 -50.0859375 155.125 C-73.0991301 155.83038521 -96.02736668 148.77306374 -113 133 C-126.01386082 120.13189442 -134.27874238 104.16527813 -137 86 C-137.10957031 85.27554688 -137.21914063 84.55109375 -137.33203125 83.8046875 C-140.25943085 60.1512987 -136.22867133 35.85595331 -121.75 16.4375 C-107.62010869 -0.8840115 -88.73384269 -12.18288192 -66.28466797 -14.80151367 C-42.70621275 -16.84995181 -19.71695942 -13.89727624 0 0 Z M-86.0625 31.19140625 C-97.08606266 44.68193555 -101.16374424 59.68824547 -99.60571289 77.01123047 C-98.14366228 90.01033022 -93.3460469 102.29223521 -83.52734375 111.2578125 C-72.98305181 119.48084305 -60.29302234 123.12652732 -47 122 C-34.63417233 119.81159126 -23.59902525 115.32306272 -15.55859375 105.27734375 C-6.38364352 91.87133878 -3.14606037 76.41333491 -5.5390625 60.390625 C-8.35345242 45.9784744 -14.41925868 33.2451023 -26.6328125 24.43359375 C-44.93397979 13.35021356 -71.12167018 15.31677457 -86.0625 31.19140625 Z " fill="#363542" transform="translate(965,276)"/>
<path d="M0 0 C16.84872733 13.05879356 24.13951823 31.79166995 27.09664917 52.40751266 C27.9865818 60.05181412 27.85115861 67.77641716 27.84765625 75.4609375 C27.85477907 77.39045933 27.86248106 79.3199791 27.87072754 81.24949646 C27.8840531 85.25729301 27.88579167 89.26489281 27.87988281 93.27270508 C27.87394642 98.3936626 27.90479558 103.51368522 27.94499969 108.6344614 C27.97088365 112.60400939 27.97375444 116.57333084 27.97010803 120.54295158 C27.97179337 122.43151164 27.98137906 124.32008281 27.99925232 126.20855904 C28.02149613 128.84483838 28.01171951 131.47920336 27.99414062 134.11547852 C28.00740387 134.88287354 28.02066711 135.65026855 28.03433228 136.44091797 C27.94449939 142.26645575 26.08779649 146.33628975 22.37890625 150.83203125 C17.95125126 153.9034128 14.20366273 154.26411991 8.87890625 154.26953125 C7.61046875 154.28886719 6.34203125 154.30820312 5.03515625 154.328125 C-0.35807055 153.59635171 -3.39282883 151.22627791 -6.93359375 147.20703125 C-9.8372104 143.12045966 -9.77207151 140.01012183 -9.77880859 135.13208008 C-9.78388931 134.33658249 -9.78897003 133.5410849 -9.79420471 132.72148132 C-9.80492381 130.98852968 -9.81353792 129.25556405 -9.82032394 127.52259254 C-9.83212645 124.76683528 -9.85158987 122.01123379 -9.8734436 119.25553894 C-9.93496354 111.41789061 -9.98880408 103.58025288 -10.02246094 95.74243164 C-10.0436007 90.94834332 -10.0790701 86.15453056 -10.12321854 81.36060143 C-10.13724449 79.54487072 -10.14607016 77.72909115 -10.14927292 75.9133091 C-10.18172113 59.25630593 -10.710332 42.61080174 -22.48828125 29.66015625 C-31.30276467 22.10488474 -42.43821261 21.00721435 -53.54345703 21.60986328 C-62.29481486 22.5456724 -69.75017663 27.14661285 -76.59765625 32.37890625 C-78.62109375 33.83203125 -78.62109375 33.83203125 -81.62109375 34.83203125 C-81.62109375 35.49203125 -81.62109375 36.15203125 -81.62109375 36.83203125 C-82.28109375 36.83203125 -82.94109375 36.83203125 -83.62109375 36.83203125 C-83.89179687 37.40695312 -84.1625 37.981875 -84.44140625 38.57421875 C-85.63574564 40.86007361 -87.0009868 42.85768419 -88.49609375 44.95703125 C-93.99523589 53.09145911 -96.72974354 61.24308851 -96.77880859 71.01220703 C-96.78388931 71.728246 -96.78897003 72.44428497 -96.79420471 73.18202209 C-96.80488711 74.73433341 -96.81351561 76.28665993 -96.82032394 77.83899307 C-96.83215781 80.30370226 -96.85162457 82.76823974 -96.8734436 85.23287964 C-96.9348905 92.2398295 -96.98895871 99.2467626 -97.02246094 106.25390625 C-97.04352375 110.54455573 -97.07892245 114.83489269 -97.12321854 119.1253624 C-97.13729112 120.75263643 -97.14608102 122.37996576 -97.14927292 124.00729752 C-97.16802464 132.65617645 -97.32406426 140.67921917 -100.62109375 148.83203125 C-101.28109375 148.83203125 -101.94109375 148.83203125 -102.62109375 148.83203125 C-102.62109375 149.49203125 -102.62109375 150.15203125 -102.62109375 150.83203125 C-109.46032121 154.80489528 -115.89897698 154.59075451 -123.62109375 153.83203125 C-128.57102544 152.32764025 -131.82509022 149.13357515 -134.62109375 144.83203125 C-135.68429709 141.59706258 -135.75143594 138.58152484 -135.76153564 135.19033813 C-135.76724579 134.04077133 -135.77295593 132.89120453 -135.77883911 131.70680237 C-135.77995697 130.44955856 -135.78107483 129.19231476 -135.78222656 127.89697266 C-135.78685708 126.55637984 -135.79188206 125.21578834 -135.79727173 123.87519836 C-135.81037373 120.23671914 -135.81683619 116.59825835 -135.82128239 112.95975924 C-135.82421619 110.68557647 -135.82832155 108.41139871 -135.83278656 106.13721848 C-135.84645465 99.0187856 -135.85612512 91.90036421 -135.85998845 84.78191912 C-135.86447002 76.57005322 -135.88202529 68.35835369 -135.91098905 60.14653838 C-135.93261319 53.7948207 -135.94269309 47.44314982 -135.94402957 41.09139574 C-135.94507692 37.29952936 -135.95096992 33.50781954 -135.96884918 29.71599197 C-135.98534303 26.14874535 -135.98747916 22.58177277 -135.97871017 19.01450157 C-135.97757432 17.08575319 -135.99128088 15.15701384 -136.00546265 13.22831726 C-135.95399378 2.55215656 -135.95399378 2.55215656 -132.62109375 -2.16796875 C-127.80331215 -6.77628158 -123.95944281 -9.20714619 -117.30859375 -9.48046875 C-111.16181552 -9.3168274 -106.59931877 -7.64111504 -101.68359375 -3.98046875 C-98.95369228 -0.25787584 -99.063043 2.27762794 -98.62109375 6.83203125 C-97.72648437 6.24035156 -96.831875 5.64867187 -95.91015625 5.0390625 C-67.66180722 -13.49891655 -29.4566198 -21.22296222 0 0 Z " fill="#363542" transform="translate(1149.62109375,273.16796875)"/>
<path d="M0 0 C0.99 0.495 0.99 0.495 2 1 C2.62825507 3.94889102 3.13238619 6.83356362 3.5625 9.8125 C3.68818359 10.61365234 3.81386719 11.41480469 3.94335938 12.24023438 C8.29140967 40.99200153 8.03534815 71.48168684 -2 99 C-2.46019531 100.37671875 -2.46019531 100.37671875 -2.9296875 101.78125 C-9.13432625 119.13227517 -22.55174785 132.88784794 -38.8671875 140.98046875 C-69.86089779 155.54111899 -110.83570538 157.23389384 -144 149 C-144.66 148.34 -145.32 147.68 -146 147 C-145.25363061 146.2545524 -144.50726122 145.5091048 -143.73827457 144.74106789 C-125.60088589 126.62585135 -107.46636009 108.50777281 -89.33485508 90.38666725 C-80.56663319 81.62360777 -71.79747391 72.86149014 -63.02612305 64.1015625 C-55.38350493 56.4688929 -47.74262976 48.83448359 -40.10386699 41.19795549 C-36.0569091 37.15230441 -32.00906722 33.10754659 -27.95913887 29.06486893 C-24.15104469 25.26353759 -20.34527674 21.45989315 -16.54131699 17.65442467 C-15.14130256 16.25468645 -13.74042426 14.8558117 -12.33864021 13.45784569 C-10.43179454 11.55594135 -8.52801974 9.65101635 -6.62501526 7.74526978 C-5.78310327 6.90772705 -5.78310327 6.90772705 -4.92418295 6.05326426 C-2.11364672 3.29013952 -2.11364672 3.29013952 0 0 Z " fill="#5AAD89" transform="translate(1419,40)"/>
<path d="M0 0 C5.60161271 3.15788127 8.4994695 7.38372287 10.75 13.375 C11.28367187 12.85550781 11.81734375 12.33601563 12.3671875 11.80078125 C22.87050857 1.9698181 33.53962077 -2.16697337 47.8828125 -1.875 C53.47238103 -1.38762618 57.35007375 0.1835734 61.6875 3.875 C65.07337814 7.97909471 65.09451238 11.68494521 65.02734375 16.8046875 C64.47058495 21.96450845 62.22351389 25.15311694 58.2109375 28.48046875 C53.79713619 30.89660152 49.94417513 31.2937835 45 31.8125 C34.43440737 33.18439452 26.18117087 35.35817711 19.28125 44.015625 C11.12067371 56.58957418 10.46343544 70.39938202 10.47560501 84.92398643 C10.47658259 87.50219714 10.4634874 90.08000485 10.44662476 92.65815735 C10.40070221 99.97983823 10.37573657 107.30147064 10.36914062 114.62329102 C10.36411275 119.12302902 10.33981247 123.62233567 10.30381393 128.12192726 C10.29405918 129.82622495 10.29166022 131.53058223 10.29698563 133.23489952 C10.35069163 151.25125991 10.35069163 151.25125991 4.06640625 158.25 C-2.06591496 162.18342652 -8.13626177 162.31639357 -15.25 161.375 C-19.96686726 160.1082268 -22.37088683 158.54190482 -25.32287598 154.62353516 C-28.39298033 149.08602168 -27.80679466 143.0051811 -27.76757812 136.83984375 C-27.77300476 135.47086851 -27.78013046 134.10189911 -27.78881836 132.73294067 C-27.80699066 129.03037712 -27.80000976 125.32826143 -27.78730202 121.62569046 C-27.77714254 117.74255456 -27.78657585 113.85945584 -27.79284668 109.97631836 C-27.80011454 103.45647327 -27.79055811 96.93680969 -27.77148438 90.41699219 C-27.74971715 82.88977607 -27.75676914 75.36299339 -27.77879 67.83578777 C-27.79696866 61.36166785 -27.79949032 54.88767806 -27.78903532 48.41354084 C-27.78281388 44.55181592 -27.78192734 40.69029444 -27.79518127 36.82858276 C-27.80677529 33.19715052 -27.79865023 29.56627462 -27.77560425 25.93490219 C-27.76783199 23.97419744 -27.77964274 22.01344538 -27.79211426 20.05276489 C-27.72736179 13.29301174 -27.40386564 8.82116337 -23.25 3.375 C-16.2758223 -2.10557142 -8.12258081 -3.60496564 0 0 Z " fill="#363542" transform="translate(437.25,265.625)"/>
<path d="M0 0 C3.91447431 3.59180614 6.84131427 6.99457897 7.13142776 12.48917007 C7.13440243 13.48759808 7.13737709 14.48602608 7.14044189 15.51470947 C7.14615204 16.66145645 7.15186218 17.80820343 7.15774536 18.98970032 C7.15886322 20.24896835 7.15998108 21.50823639 7.16113281 22.80566406 C7.1657619 24.14448686 7.17078668 25.48330835 7.17617798 26.8221283 C7.18929687 30.46073387 7.19574615 34.09932099 7.20018864 37.73794651 C7.20312071 40.0122992 7.20722582 42.28664686 7.21169281 44.56099701 C7.22536755 51.67996931 7.23503383 58.7989301 7.2388947 65.91791463 C7.24337294 74.12978065 7.26090994 82.34148002 7.2898953 90.55329537 C7.31153201 96.90415926 7.32160007 103.25497634 7.32293582 109.60587668 C7.3239826 113.39723096 7.32986297 117.18842856 7.34775543 120.97974396 C7.36427023 124.5486219 7.36637527 128.11722601 7.35761642 131.68612862 C7.35648253 133.61350118 7.37017432 135.5408648 7.3843689 137.46818542 C7.35081986 144.44423096 7.24436044 150.23181053 2.5 155.7421875 C-2.44250045 159.47480503 -5.68438172 160.17168539 -11.8125 160.25 C-13.01519531 160.27578125 -14.21789063 160.3015625 -15.45703125 160.328125 C-19.983235 159.90893965 -23.20644269 158.5592446 -26.64453125 155.5703125 C-30.68391655 150.57174206 -31.12145503 146.58763266 -31.14044189 140.32070923 C-31.14615204 139.18804123 -31.15186218 138.05537323 -31.15774536 136.88838196 C-31.15886322 135.65500595 -31.15998108 134.42162994 -31.16113281 133.15087891 C-31.16858017 131.19155174 -31.16858017 131.19155174 -31.17617798 129.19264221 C-31.18926346 125.61613656 -31.19573911 122.03964964 -31.20018864 118.4631238 C-31.20312493 116.2266175 -31.20723073 113.99011626 -31.21169281 111.75361252 C-31.22535612 104.74997725 -31.2350291 97.74635361 -31.2388947 90.74270594 C-31.24337604 82.66896008 -31.26093227 74.59538346 -31.2898953 66.52168906 C-31.31153164 60.27269478 -31.32159998 54.02374806 -31.32293582 47.77471673 C-31.32398223 44.04598941 -31.3298553 40.31742143 -31.34775543 36.58873367 C-31.36734094 32.42835506 -31.3629394 28.26832981 -31.35644531 24.10791016 C-31.3656601 22.87858261 -31.37487488 21.64925507 -31.3843689 20.38267517 C-31.34559464 12.45740681 -31.01001974 7.01001974 -25.1875 1.1875 C-17.44446589 -4.12634694 -8.17867978 -4.83975484 0 0 Z " fill="#363542" transform="translate(1234,267)"/>
<path d="M0 0 C7.26 0 14.52 0 22 0 C24.06366905 4.94356542 26.12687767 9.88731817 28.18896484 14.83154297 C28.88889844 16.50938655 29.58908816 18.1871233 30.28955078 19.86474609 C33.9173666 28.55390837 37.5434135 37.24088359 41 46 C43.83916116 40.47847476 46.3423639 34.92688812 48.63671875 29.16015625 C49.12408257 27.94881264 49.12408257 27.94881264 49.62129211 26.71299744 C50.64653748 24.16409289 51.66744377 21.61348519 52.6875 19.0625 C53.71856301 16.48664378 54.75061851 13.91120766 55.7858429 11.33702087 C56.42717101 9.74212894 57.06607044 8.14625785 57.70231628 6.54933167 C59.88753185 1.11246815 59.88753185 1.11246815 61 0 C67.93 0 74.86 0 82 0 C82 23.76 82 47.52 82 72 C76.06 72 70.12 72 64 72 C63.67 60.12 63.34 48.24 63 36 C61.60974609 39.77244141 61.60974609 39.77244141 60.19140625 43.62109375 C59.29517767 46.04720208 58.39800199 48.47295815 57.50073242 50.89868164 C56.8760413 52.58907014 56.25234063 54.27982499 55.62963867 55.97094727 C54.73614407 58.39695926 53.83913477 60.82164583 52.94140625 63.24609375 C52.6622084 64.00651474 52.38301056 64.76693573 52.09535217 65.55039978 C50.11387171 70.88612829 50.11387171 70.88612829 49 72 C43.72 72 38.44 72 33 72 C28.71 60.45 24.42 48.9 20 37 C19.67 48.55 19.34 60.1 19 72 C12.73 72 6.46 72 0 72 C0 48.24 0 24.48 0 0 Z " fill="#FEBC58" transform="translate(799,465)"/>
<path d="M0 0 C19 0 19 0 23.03515625 4.0234375 C24.04919206 6.00263993 25.03435144 7.99674422 26 10 C27.61405681 12.56251229 29.34151328 15.04481006 31.05859375 17.5390625 C31.86383409 18.74257628 32.6663978 19.94788437 33.46655273 21.15478516 C37.64234832 27.43786653 41.82155629 33.7186794 46 40 C46.33 26.8 46.66 13.6 47 0 C53.27 0 59.54 0 66 0 C66 23.76 66 47.52 66 72 C46 72 46 72 41.40625 67.8203125 C39.87158203 65.08837891 39.87158203 65.08837891 38.5 62.125 C37.40647954 60.1130406 36.31007259 58.10264763 35.2109375 56.09375 C34.6859668 55.07667969 34.16099609 54.05960938 33.62011719 53.01171875 C31.10341262 48.33328784 28.12762795 44.00056452 25.125 39.625 C23.43375 37.10875 21.7425 34.5925 20 32 C19.67 45.2 19.34 58.4 19 72 C12.73 72 6.46 72 0 72 C0 48.24 0 24.48 0 0 Z " fill="#FEBD59" transform="translate(1106,465)"/>
<path d="M0 0 C5.25262671 4.43981148 8.73415212 8.57469649 11.17578125 15.01171875 C11.17578125 16.00171875 11.17578125 16.99171875 11.17578125 18.01171875 C7.75940172 18.12804388 4.34353228 18.19900772 0.92578125 18.26171875 C-0.04230469 18.29523438 -1.01039062 18.32875 -2.0078125 18.36328125 C-9.23469085 18.46296233 -9.23469085 18.46296233 -12.35546875 16.07421875 C-12.84015625 15.39359375 -13.32484375 14.71296875 -13.82421875 14.01171875 C-17.96377394 11.71196587 -22.18428494 11.33666392 -26.82421875 12.01171875 C-31.46700698 13.41887961 -34.74730856 15.29077746 -37.26171875 19.51171875 C-40.65027402 27.10208255 -40.78255659 34.1563933 -37.84765625 41.96484375 C-35.61701843 46.42611939 -32.85861103 48.3272798 -28.3046875 49.859375 C-21.9294699 51.34841184 -16.58553161 51.35513124 -10.82421875 48.01171875 C-8.24350902 45.68414084 -6.38533097 43.13394318 -4.82421875 40.01171875 C-12.08421875 40.01171875 -19.34421875 40.01171875 -26.82421875 40.01171875 C-26.82421875 35.39171875 -26.82421875 30.77171875 -26.82421875 26.01171875 C-13.95421875 26.01171875 -1.08421875 26.01171875 12.17578125 26.01171875 C13.03011656 47.37010138 13.03011656 47.37010138 8.0078125 54.0390625 C0.35165821 62.28289601 -7.51957579 67.37928027 -18.953125 68.25 C-29.76355689 68.48367259 -39.53575173 66.82400338 -48.078125 59.7734375 C-56.97865404 50.79326167 -59.80960673 40.38810376 -59.82421875 28.01171875 C-59.26869872 20.34554237 -57.04650976 14.39696252 -52.82421875 8.01171875 C-52.24671875 7.12484375 -51.66921875 6.23796875 -51.07421875 5.32421875 C-38.04964304 -8.06215073 -15.51246694 -10.92094837 0 0 Z " fill="#FEBD58" transform="translate(1235.82421875,469.98828125)"/>
<path d="M0 0 C8.07657067 5.76897905 12.80670961 12.95430258 15.0703125 22.6015625 C16.90761014 33.93156461 15.30901601 44.1791314 8.8515625 53.75 C3.28078848 61.14453933 -4.27252645 66.8121686 -13.4609375 68.4921875 C-25.75498625 69.54339918 -36.74002031 68.30253991 -46.61328125 60.25390625 C-55.42893994 51.8482782 -58.80461761 43.76541824 -59.45703125 31.73046875 C-59.46913815 21.69384753 -56.17379272 12.26117926 -49.3984375 4.7421875 C-36.02498511 -7.6886427 -15.37381951 -9.41951481 0 0 Z M-36.2109375 17.2421875 C-40.05143532 22.78957324 -41.4321642 28.78952419 -40.4609375 35.4921875 C-38.46878787 42.63162102 -36.10131818 46.75376542 -29.640625 50.56640625 C-24.48118294 52.75778218 -18.28435048 52.09999183 -13.0859375 50.3671875 C-8.31696794 46.96078067 -5.29394067 43.03175019 -3.4609375 37.4921875 C-2.59055207 30.15463588 -2.88717616 23.51616585 -7.4609375 17.4921875 C-11.797024 13.06760944 -15.04551712 11.3342087 -21.2109375 11.2421875 C-27.91396116 11.32227141 -31.40979859 12.44104859 -36.2109375 17.2421875 Z " fill="#FEBC58" transform="translate(544.4609375,469.5078125)"/>
<path d="M0 0 C7.26 0 14.52 0 22 0 C23.05058594 2.97 24.10117187 5.94 25.18359375 9 C26.60049635 13.00037826 28.01892721 17.00021373 29.4375 21 C29.80182129 22.0277655 30.16614258 23.05553101 30.54150391 24.11444092 C35.09672331 36.95662071 39.6754228 49.78244932 44.61108398 62.484375 C44.93536377 63.32742188 45.25964355 64.17046875 45.59375 65.0390625 C45.86896484 65.74240723 46.14417969 66.44575195 46.42773438 67.17041016 C47 69 47 69 47 72 C40.4 72 33.8 72 27 72 C24 63 24 63 24 60 C15.09 60 6.18 60 -3 60 C-3.66 62.97 -4.32 65.94 -5 69 C-5.33 69.99 -5.66 70.98 -6 72 C-12.6 72 -19.2 72 -26 72 C-21.22297838 57.41919808 -16.15530373 42.98187832 -10.83642578 28.59057617 C-9.60231305 25.2511099 -8.37307685 21.9098773 -7.14453125 18.56835938 C-6.35964922 16.43739898 -5.57450343 14.30653571 -4.7890625 12.17578125 C-4.23915146 10.68235954 -4.23915146 10.68235954 -3.6781311 9.1587677 C-3.34042694 8.24568344 -3.00272278 7.33259918 -2.65478516 6.3918457 C-2.35835114 5.58914749 -2.06191711 4.78644928 -1.75650024 3.95942688 C-1 2 -1 2 0 0 Z M10 22 C8.82847622 25.45670732 7.66360923 28.91562122 6.5 32.375 C5.99919922 33.85226562 5.99919922 33.85226562 5.48828125 35.359375 C5.17246094 36.30039062 4.85664062 37.24140625 4.53125 38.2109375 C4.23798828 39.08024902 3.94472656 39.94956055 3.64257812 40.84521484 C2.90474212 42.94467299 2.90474212 42.94467299 3 45 C7.95 45 12.9 45 18 45 C16.48526781 37.01323028 13.83197448 29.59877122 11 22 C10.67 22 10.34 22 10 22 Z " fill="#FEBC58" transform="translate(910,465)"/>
<path d="M0 0 C7.26 0 14.52 0 22 0 C23.05058594 2.97 24.10117187 5.94 25.18359375 9 C26.60049635 13.00037826 28.01892721 17.00021373 29.4375 21 C29.80182129 22.0277655 30.16614258 23.05553101 30.54150391 24.11444092 C35.09672331 36.95662071 39.6754228 49.78244932 44.61108398 62.484375 C44.93536377 63.32742188 45.25964355 64.17046875 45.59375 65.0390625 C45.86896484 65.74240723 46.14417969 66.44575195 46.42773438 67.17041016 C47 69 47 69 47 72 C40.4 72 33.8 72 27 72 C24 63 24 63 24 60 C15.09 60 6.18 60 -3 60 C-3.66 62.97 -4.32 65.94 -5 69 C-5.33 69.99 -5.66 70.98 -6 72 C-12.6 72 -19.2 72 -26 72 C-21.22297838 57.41919808 -16.15530373 42.98187832 -10.83642578 28.59057617 C-9.60231305 25.2511099 -8.37307685 21.9098773 -7.14453125 18.56835938 C-6.35964922 16.43739898 -5.57450343 14.30653571 -4.7890625 12.17578125 C-4.23915146 10.68235954 -4.23915146 10.68235954 -3.6781311 9.1587677 C-3.34042694 8.24568344 -3.00272278 7.33259918 -2.65478516 6.3918457 C-2.35835114 5.58914749 -2.06191711 4.78644928 -1.75650024 3.95942688 C-1 2 -1 2 0 0 Z M10 22 C8.82847622 25.45670732 7.66360923 28.91562122 6.5 32.375 C5.99919922 33.85226562 5.99919922 33.85226562 5.48828125 35.359375 C5.17246094 36.30039062 4.85664062 37.24140625 4.53125 38.2109375 C4.23798828 39.08024902 3.94472656 39.94956055 3.64257812 40.84521484 C2.90474212 42.94467299 2.90474212 42.94467299 3 45 C7.95 45 12.9 45 18 45 C16.48526781 37.01323028 13.83197448 29.59877122 11 22 C10.67 22 10.34 22 10 22 Z " fill="#FEBC58" transform="translate(686,465)"/>
<path d="M0 0 C7.56274223 5.42486456 10.56277924 11.63312592 13.25 20.3125 C9.85482186 20.4873936 6.46080513 20.59353765 3.0625 20.6875 C2.10279297 20.73777344 1.14308594 20.78804688 0.15429688 20.83984375 C-6.87262268 20.98573135 -6.87262268 20.98573135 -9.46240234 18.99853516 C-10.78515625 17.375 -10.78515625 17.375 -12.75 14.3125 C-17.02464461 11.70021719 -21.8803848 11.65263791 -26.75 12.3125 C-31.0961234 13.73285735 -33.36363755 15.80412836 -36.125 19.4375 C-38.93166279 25.08711863 -39.3627061 31.43630371 -38.0625 37.5625 C-36.29367445 42.61628729 -34.52991842 46.0411297 -30.125 49.1875 C-25.56229326 50.70840225 -21.51184604 51.01709836 -16.75 50.3125 C-13.41530391 48.61483654 -11.41252328 47.34741652 -9.39526367 44.19628906 C-7.75 42.3125 -7.75 42.3125 -5.48168945 41.85839844 C-4.61761475 41.8793457 -3.75354004 41.90029297 -2.86328125 41.921875 C-1.92548828 41.93476563 -0.98769531 41.94765625 -0.02148438 41.9609375 C0.95498047 41.99445313 1.93144531 42.02796875 2.9375 42.0625 C3.92556641 42.08054687 4.91363281 42.09859375 5.93164062 42.1171875 C8.37206842 42.16434553 10.81054769 42.23013958 13.25 42.3125 C10.23786444 52.04130666 6.5666809 58.61506341 -2.34765625 64.05859375 C-12.53880188 69.37787464 -23.96501222 69.96706598 -35 66.875 C-43.62109081 63.61763191 -50.08961762 57.24327967 -54.8125 49.4296875 C-59.17258686 39.583158 -59.53061591 26.59871524 -56.3125 16.3125 C-52.59305296 7.72203335 -45.25583037 0.08686714 -36.65234375 -3.58203125 C-24.3820468 -7.95145407 -11.07731839 -6.76435249 0 0 Z " fill="#FEBC58" transform="translate(619.75,469.6875)"/>
<path d="M0 0 C6.22435043 4.90989133 8.00269261 9.90627995 9.01171875 17.67578125 C5.74135147 17.82088287 2.47180868 17.90977498 -0.80078125 17.98828125 C-1.72955078 18.03017578 -2.65832031 18.07207031 -3.61523438 18.11523438 C-6.16524049 18.16126337 -8.48305896 18.15993527 -10.98828125 17.67578125 C-13 15.21875 -13 15.21875 -13.98828125 12.67578125 C-17.0015232 11.16916028 -19.67114502 11.49807752 -22.98828125 11.67578125 C-25.14759652 13.50301355 -25.14759652 13.50301355 -25.61328125 15.98828125 C-25.19926449 19.01328119 -25.19926449 19.01328119 -21.98828125 21.11328125 C-17.84386925 23.48891741 -13.47571766 24.97547068 -8.98828125 26.55078125 C-1.91121066 29.05015175 3.98837506 31.97952072 8.18359375 38.49609375 C10.42296313 44.39028298 10.02939678 52.35381425 7.51171875 58.11328125 C4.30440365 63.47391745 -0.46679648 66.80650905 -6.296875 68.81640625 C-17.83766875 71.50315188 -28.85995199 70.07411207 -38.92578125 63.86328125 C-44.37699281 58.08169323 -44.98220593 54.72438383 -45.98828125 46.67578125 C-39.38828125 46.67578125 -32.78828125 46.67578125 -25.98828125 46.67578125 C-24.99828125 48.65578125 -24.00828125 50.63578125 -22.98828125 52.67578125 C-19.96959691 54.18512342 -17.31530896 53.85088797 -13.98828125 53.67578125 C-12.99828125 53.01578125 -12.00828125 52.35578125 -10.98828125 51.67578125 C-10.76560417 48.29754709 -10.76560417 48.29754709 -11.98828125 44.67578125 C-14.71134597 42.68458138 -17.81627476 41.76105746 -20.98828125 40.67578125 C-40.61401224 33.42431926 -40.61401224 33.42431926 -44.98828125 24.67578125 C-45.16431272 22.26328433 -45.25573093 19.8442723 -45.30078125 17.42578125 C-45.33816406 16.12125 -45.37554687 14.81671875 -45.4140625 13.47265625 C-44.78018064 7.82005834 -42.21815746 4.87770573 -38.23828125 0.98828125 C-27.71455909 -6.49975182 -10.98930425 -7.31900617 0 0 Z " fill="#FEBC58" transform="translate(472.98828125,468.32421875)"/>
<path d="M0 0 C5.89875 -0.0825 11.7975 -0.165 17.875 -0.25 C20.63593018 -0.30462402 20.63593018 -0.30462402 23.45263672 -0.36035156 C33.14223797 -0.47371425 41.50882137 -0.34718308 49.4375 5.9296875 C54.46889073 12.19376895 56.52449414 17.23532733 56.3046875 25.34375 C55.56167753 31.82127281 53.49285351 37.24168892 48.375 41.4375 C39.04342198 47.48162301 29.7802576 47.29400703 19 47 C19 55.25 19 63.5 19 72 C12.73 72 6.46 72 0 72 C0 48.24 0 24.48 0 0 Z M19 15 C19 20.61 19 26.22 19 32 C21.8153125 32.0928125 21.8153125 32.0928125 24.6875 32.1875 C26.27111328 32.23970703 26.27111328 32.23970703 27.88671875 32.29296875 C31.39065615 31.96323813 33.19698511 31.08584712 36 29 C37.56935594 25.86128812 37.35201103 23.46144178 37 20 C35.46784527 16.79700819 35.46784527 16.79700819 32 15 C27.57771908 14.58239962 23.46093817 14.77470009 19 15 Z " fill="#FEBC58" transform="translate(1020,465)"/>
<path d="M0 0 C5.89875 -0.0825 11.7975 -0.165 17.875 -0.25 C20.63593018 -0.30462402 20.63593018 -0.30462402 23.45263672 -0.36035156 C33.14223797 -0.47371425 41.50882137 -0.34718308 49.4375 5.9296875 C54.46889073 12.19376895 56.52449414 17.23532733 56.3046875 25.34375 C55.56167753 31.82127281 53.49285351 37.24168892 48.375 41.4375 C39.04342198 47.48162301 29.7802576 47.29400703 19 47 C19 55.25 19 63.5 19 72 C12.73 72 6.46 72 0 72 C0 48.24 0 24.48 0 0 Z M19 15 C19 20.61 19 26.22 19 32 C21.8153125 32.0928125 21.8153125 32.0928125 24.6875 32.1875 C26.27111328 32.23970703 26.27111328 32.23970703 27.88671875 32.29296875 C31.39065615 31.96323813 33.19698511 31.08584712 36 29 C37.56935594 25.86128812 37.35201103 23.46144178 37 20 C35.46784527 16.79700819 35.46784527 16.79700819 32 15 C27.57771908 14.58239962 23.46093817 14.77470009 19 15 Z " fill="#FEBC58" transform="translate(960,465)"/>
<path d="M0 0 C4.65639012 11.96925955 9.15089126 23.95376346 12.875 36.25 C13.14836182 37.15177979 13.42172363 38.05355957 13.70336914 38.98266602 C15.67345727 45.62096667 17.31703874 52.26815497 19 59 C8.44 59 -2.12 59 -13 59 C-17.625 44.4375 -17.625 44.4375 -19.04150391 39.94702148 C-21.46081737 32.39152646 -24.08108675 24.99578145 -27.13980103 17.67320251 C-29 13.19224142 -29 13.19224142 -29 11 C-25.35506745 9.4265274 -21.70717419 7.86015756 -18.05639648 6.30029297 C-16.81500279 5.76870727 -15.5744337 5.23519155 -14.3347168 4.69970703 C-12.55215191 3.93014157 -10.76634771 3.1680931 -8.98046875 2.40625 C-7.90692139 1.94541016 -6.83337402 1.48457031 -5.72729492 1.00976562 C-3 0 -3 0 0 0 Z " fill="#DADADA" transform="translate(1419,208)"/>
<path d="M0 0 C6.27 0 12.54 0 19 0 C19 19.14 19 38.28 19 58 C26.59 58 34.18 58 42 58 C42 62.62 42 67.24 42 72 C28.14 72 14.28 72 0 72 C0 48.24 0 24.48 0 0 Z " fill="#FEBC58" transform="translate(736,465)"/>
<path d="M0 0 C4.17170285 0.57994872 7.78240154 1.53930312 11.68359375 3.1171875 C12.76592285 3.55426025 13.84825195 3.99133301 14.96337891 4.44165039 C16.10983887 4.91465576 17.25629883 5.38766113 18.4375 5.875 C19.62005371 6.36025146 20.80260742 6.84550293 22.02099609 7.34545898 C30.14876886 10.72090075 38.17474731 14.28608243 46.125 18.0625 C47.10782959 18.5270459 48.09065918 18.9915918 49.10327148 19.47021484 C49.99989502 19.90414551 50.89651855 20.33807617 51.8203125 20.78515625 C52.60680176 21.16551025 53.39329102 21.54586426 54.20361328 21.93774414 C56 23 56 23 57 25 C55.82836914 27.61376953 55.82836914 27.61376953 54.03515625 30.8828125 C53.72299667 31.45707977 53.4108371 32.03134705 53.08921814 32.62301636 C52.0877738 34.46120357 51.07531743 36.29305899 50.0625 38.125 C49.38273103 39.3680893 48.70368498 40.61157421 48.02539062 41.85546875 C46.35863301 44.9082855 44.68194488 47.9555188 43 51 C39.11944052 49.7704072 35.49013683 48.37287877 31.83984375 46.57421875 C30.88674316 46.10935059 29.93364258 45.64448242 28.95166016 45.16552734 C27.9569873 44.67777832 26.96231445 44.1900293 25.9375 43.6875 C18.43331333 40.04382812 10.991888 36.61589727 3.1328125 33.8046875 C1 33 1 33 0 32 C-0.0883967 29.6243148 -0.11530305 27.27791326 -0.09765625 24.90234375 C-0.0962413 24.19348526 -0.09482635 23.48462677 -0.09336853 22.75428772 C-0.08775443 20.48198288 -0.07519963 18.20977525 -0.0625 15.9375 C-0.05748681 14.40039204 -0.05292359 12.86328255 -0.04882812 11.32617188 C-0.03778042 7.55074358 -0.02050641 3.77538829 0 0 Z " fill="#DADADA" transform="translate(1204,10)"/>
<path d="M0 0 C6.27 0 12.54 0 19 0 C19 23.76 19 47.52 19 72 C12.73 72 6.46 72 0 72 C0 48.24 0 24.48 0 0 Z " fill="#FEBC58" transform="translate(1080,465)"/>
<path d="M0 0 C5.94 0 11.88 0 18 0 C18 23.76 18 47.52 18 72 C12.06 72 6.12 72 0 72 C0 48.24 0 24.48 0 0 Z " fill="#FEBC58" transform="translate(639,465)"/>
<path d="M0 0 C4.31628998 2.53054839 6.90963799 5.54141398 8.5 10.3125 C9.12833276 17.93489745 9.52377861 24.2582027 4.5 30.3125 C-1.60327008 34.91473382 -8.03352513 36.13679883 -15.5 35.3125 C-20.50981425 34.03771744 -24.42238042 32.05887764 -27.5625 27.875 C-30.55074472 22.36380818 -30.22110644 16.39039712 -29.5 10.3125 C-27.89826981 5.50730944 -25.69350109 3.10816739 -21.5 0.3125 C-14.81793103 -2.8413458 -6.76775772 -3.13627797 0 0 Z " fill="#363642" transform="translate(1232.5,221.6875)"/>
</svg>
